<?xml version="1.0" encoding="utf-8"?>
<!-- Generator: Adobe Illustrator 27.5.0, SVG Export Plug-In . SVG Version: 6.00 Build 0)  -->
<svg version="1.1" xmlns="http://www.w3.org/2000/svg" xmlns:xlink="http://www.w3.org/1999/xlink" x="0px" y="0px"
	 viewBox="0 0 3710 3710" style="enable-background:new 0 0 3710 3710;" xml:space="preserve">
<g id="Background">
	<g>
		<g>
			<rect style="fill:#FFFFFF;" width="3710" height="3710"/>
		</g>
	</g>
</g>
<g id="Illustration">
	<g>
		<linearGradient id="SVGID_1_" gradientUnits="userSpaceOnUse" x1="3593.6904" y1="4033.8889" x2="1134.8656" y2="980.1827">
			<stop  offset="0" style="stop-color:#DAE3FE"/>
			<stop  offset="1" style="stop-color:#E9EFFD"/>
		</linearGradient>
		<path style="fill:url(#SVGID_1_);" d="M2917.252,2829.618c-56.479,59.458-109.917,97.802-152.139,128.096
			c-496.302,356.103-1083.56,252.301-1208.369,226.951c-184.303-37.433-540.558-109.79-798.123-412.682
			c-389.675-458.25-328.997-1180.21-26.739-1656.786c55.288-87.174,347.334-571.009,940.917-648.601
			c359.23-46.958,777.977,47.751,1081.221,301.809C3390.559,1301.696,3345.244,2379.042,2917.252,2829.618z"/>
		<g>
			<g>
				
					<linearGradient id="SVGID_00000060725979302703863630000014500276681787679112_" gradientUnits="userSpaceOnUse" x1="1042.8785" y1="1903.3359" x2="2806.8662" y2="1903.3359">
					<stop  offset="0" style="stop-color:#09005D"/>
					<stop  offset="1" style="stop-color:#1A0F91"/>
				</linearGradient>
				<path style="fill:url(#SVGID_00000060725979302703863630000014500276681787679112_);" d="M1075.203,720.553
					c-10.404,419.682-44.147,1867.328-28.039,2380.329c1.706,54.347,45.274,97.969,99.62,99.748
					c268.796,8.796,1042.042,31.091,1481.699,12.645c91.574-3.842,164.395-78.017,166.296-169.652
					c9.136-440.511,29.293-1679.501-18.617-2247.083c-5.741-68.005-59.117-122.16-127.024-128.954
					c-292.73-29.284-1070.214-100.865-1450.051-76.216C1130.583,595.814,1076.904,651.926,1075.203,720.553z"/>
				<path style="fill:#91B3FA;" d="M1184.422,850.958c-14.682,343.717-60.987,1487.184-46.29,1910.014
					c2.148,61.802,50.858,111.774,112.593,115.387c254.178,14.875,906.123,47.673,1278.94,17.818
					c67.131-5.375,119.811-59.667,123.435-126.916c18.893-350.664,73.139-1415.391,59.051-1833.483
					c-2.249-66.697-53.913-121.168-120.381-127.136c-274.98-24.688-981.224-83.433-1298.032-66.148
					C1234.265,743.739,1186.963,791.452,1184.422,850.958z"/>
				<path style="opacity:0.5;fill:#3F67F9;" d="M1739.5,664.702L1739.5,664.702c0,12.878,10.036,23.499,22.895,24.172
					c63.488,3.324,242.334,12.732,322.262,17.369c15.759,0.915,28.129-13.251,25.14-28.752l-0.51-2.645
					c-2.04-10.577-10.812-18.538-21.538-19.521c-54.028-4.95-217.053-18.678-325.068-14.822
					C1749.706,640.968,1739.5,651.719,1739.5,664.702z"/>
			</g>
		</g>
		<g>
			<g>
				<g>
					
						<rect x="475.889" y="904.05" transform="matrix(0.4604 -0.8877 0.8877 0.4604 -468.489 1610.543)" style="fill:#7D97F4;" width="1229.315" height="573.178"/>
					<path style="opacity:0.5;fill:#FFFFFF;" d="M1195.135,628.935l291.138,150.999c-12.153,23.432-0.939,54.238,25.009,67.696
						c0.825,0.427,2.812,1.417,2.833,1.376l-456.845,880.835c0.021-0.041-1.928-1.105-2.752-1.531
						c-25.948-13.458-57.028-5.463-69.385,18.362c-0.182,0.35-0.568,0.7-0.568,0.7l-284.585-147.599
						c20.834-40.17-3.883-57.75-29.83-71.207c-0.824-0.428-1.164-0.159-1.185-0.118l456.846-880.835
						c-0.021,0.041,0.119,0.156,0.943,0.583C1152.701,661.651,1182.981,652.367,1195.135,628.935z"/>
					<g>
						
							<linearGradient id="SVGID_00000115513189045948736330000002323949857761943231_" gradientUnits="userSpaceOnUse" x1="3773.1538" y1="3897.3823" x2="3649.5703" y2="5487.4927" gradientTransform="matrix(0.4604 -0.8877 0.8877 0.4604 -4215.8335 2677.0969)">
							<stop  offset="0" style="stop-color:#50E7B7"/>
							<stop  offset="0.9964" style="stop-color:#323992"/>
						</linearGradient>
						
							<circle style="fill:url(#SVGID_00000115513189045948736330000002323949857761943231_);" cx="1089.443" cy="1189.39" r="180.321"/>
						<g>
							<path style="fill:#FFFFFF;" d="M1189.027,1261.575l-16.927-8.779c-9.858,17.279-23.074,32.572-34.929,42.152
								c-4.233,3.422-10.371,3.102-14.373-0.588l-13.536-12.477c-4.965-4.577-4.695-12.419,0.49-16.745
								c11.533-9.623,23.485-22.69,31.976-39.062c8.815-16.995,9.627-32.658-2.184-38.783c-10.657-5.528-22.073,0.98-40.661,21.314
								c-26.697,28.922-53.938,45.499-83.608,30.11c-26.79-13.895-37.081-44.09-24.925-80.918l-16.927-8.78
								c-5.447-2.825-7.572-9.531-4.747-14.977l5.158-9.945c2.825-5.447,9.53-7.572,14.977-4.747l15.199,7.882
								c9.122-15.989,18.078-26.425,26.285-34.138c4.204-3.952,10.779-3.893,15.027,0.012l12.53,11.517
								c4.832,4.441,4.795,12.048-0.092,16.428c-7.788,6.981-17.575,17.485-25.853,33.444c-10.458,20.165-5.093,30.257,2.397,34.141
								c9.218,4.781,21.829-4.031,43.491-26.059c30.656-31.621,54.278-39.107,82.219-24.615
								c25.637,13.296,38.821,44.259,25.46,84.118l18.943,9.825c5.447,2.825,7.572,9.53,4.747,14.978l-5.158,9.946
								C1201.179,1262.275,1194.474,1264.401,1189.027,1261.575z"/>
						</g>
					</g>
				</g>
				<path style="opacity:0.7;fill:#FFFFFF;" d="M694.837,1644.284c-0.292-0.032-0.583-0.117-0.859-0.259l-95.403-49.48
					c-0.578-0.302-1.012-0.818-1.209-1.438c-0.196-0.619-0.139-1.291,0.161-1.869l139.762-269.472
					c0.621-1.203,2.104-1.672,3.306-1.05c1.203,0.626,1.672,2.104,1.048,3.307L603.008,1591.32l93.227,48.348
					c1.203,0.626,1.672,2.104,1.048,3.307C696.803,1643.9,695.814,1644.392,694.837,1644.284z"/>
				<path style="fill:#FFFFFF;" d="M1444.706,1062.554c-0.292-0.032-0.583-0.117-0.859-0.259c-1.203-0.626-1.672-2.104-1.048-3.307
					l136.898-263.945l-99.922-51.822c-1.203-0.626-1.672-2.104-1.048-3.307c0.621-1.207,2.103-1.679,3.305-1.05l102.098,52.954
					c0.578,0.302,1.012,0.818,1.209,1.438c0.195,0.619,0.138,1.291-0.161,1.869l-138.026,266.12
					C1446.673,1062.17,1445.683,1062.662,1444.706,1062.554z"/>
			</g>
			<g>
				<g>
					
						<rect x="495.126" y="842.423" transform="matrix(0.6542 -0.7563 0.7563 0.6542 -471.5545 1230.4805)" style="fill:#91B3FA;" width="1229.315" height="576.949"/>
					<path style="opacity:0.5;fill:#FFFFFF;" d="M1341.527,608.409l248.056,214.545c-17.268,19.965-12.425,53.277,9.683,72.399
						c0.702,0.607,0.651,0.309,3.533,2.74l-649.107,750.493c-2.822-2.503-2.614-2.384-3.316-2.991
						c-22.109-19.122-54.796-18.884-72.353,1.415c-0.258,0.298-1.315,0.235-1.315,0.235L634.236,1437.53
						c29.602-34.225,9.321-57.559-12.787-76.68c-0.702-0.608-1.422-0.916-1.453-0.881l649.106-750.492
						c-0.03,0.035,0.408,0.669,1.111,1.276C1292.321,629.875,1324.259,628.374,1341.527,608.409z"/>
					<g>
						
							<linearGradient id="SVGID_00000118386753514671668020000014151746723828947341_" gradientUnits="userSpaceOnUse" x1="4250.1831" y1="4342.4619" x2="4126.6084" y2="5932.4639" gradientTransform="matrix(0.6542 -0.7564 0.7564 0.6542 -5046.2485 1411.9778)">
							<stop  offset="0" style="stop-color:#50E7B7"/>
							<stop  offset="0.9964" style="stop-color:#323992"/>
						</linearGradient>
						
							<circle style="fill:url(#SVGID_00000118386753514671668020000014151746723828947341_);" cx="1108.638" cy="1128.702" r="180.321"/>
						<g>
							<path style="fill:#FFFFFF;" d="M1188.712,1222.061l-14.421-12.473c-13.605,14.513-30.014,26.314-43.773,32.877
								c-4.912,2.344-10.808,0.606-13.842-3.913l-10.265-15.282c-3.765-5.606-1.679-13.17,4.37-16.173
								c13.454-6.678,28.116-16.608,40.181-30.557c12.524-14.48,16.955-29.525,6.891-38.229c-9.08-7.854-21.696-4.18-44.502,11.276
								c-32.689,21.923-63.038,31.713-88.317,9.849c-22.826-19.742-25.816-51.503-5.431-84.496l-14.423-12.475
								c-4.641-4.014-5.149-11.029-1.135-15.67l7.329-8.473c4.014-4.641,11.03-5.149,15.67-1.135l12.949,11.199
								c12.589-13.43,23.726-21.499,33.501-27.093c5.007-2.866,11.389-1.28,14.613,3.506l9.509,14.114
								c3.667,5.443,1.862,12.832-3.909,15.957c-9.197,4.979-21.158,12.92-32.919,26.517c-14.86,17.18-11.987,28.244-5.606,33.763
								c7.854,6.792,22.168,1.154,48.357-15.235c37.168-23.627,61.882-25.418,85.69-4.827c21.843,18.892,27.468,52.072,5.207,87.733
								l16.14,13.959c4.64,4.014,5.148,11.03,1.135,15.671l-7.329,8.474C1200.37,1225.567,1193.353,1226.075,1188.712,1222.061z"/>
						</g>
					</g>
				</g>
				<path style="opacity:0.7;fill:#FFFFFF;" d="M623.345,1478.498c-0.276-0.099-0.54-0.25-0.775-0.452l-84.137-72.771
					c-1.025-0.889-1.137-2.435-0.25-3.46l196.11-226.741c0.885-1.026,2.439-1.147,3.459-0.252c1.024,0.888,1.137,2.435,0.25,3.46
					l-194.508,224.888l82.284,71.164c1.025,0.889,1.137,2.435,0.25,3.46C625.347,1478.582,624.27,1478.83,623.345,1478.498z"/>
				<path style="fill:#FFFFFF;" d="M1482.591,1087.427c-0.276-0.099-0.54-0.25-0.775-0.452c-1.025-0.889-1.137-2.435-0.25-3.46
					l194.509-224.891l-82.285-71.165c-1.024-0.888-1.137-2.435-0.25-3.46c0.885-1.026,2.434-1.149,3.459-0.253l84.139,72.772
					c0.492,0.428,0.794,1.031,0.842,1.68c0.046,0.648-0.165,1.288-0.592,1.78l-196.112,226.744
					C1484.593,1087.511,1483.516,1087.759,1482.591,1087.427z"/>
			</g>
			<g>
				<g>
					<g>
						
							<rect x="533.961" y="775.004" transform="matrix(0.8518 -0.5239 0.5239 0.8518 -386.9066 759.3851)" style="fill:#7D97F4;" width="1229.315" height="576.949"/>
						<path style="fill:#BDD0FB;" d="M1527.413,635.662l171.821,279.356c-22.484,13.829-28.298,46.96-12.984,71.857
							c0.486,0.791,0.141,0.398,2.156,3.586l-845.188,519.842c-1.935-3.237-1.626-2.822-2.112-3.613
							c-15.314-24.898-46.239-34.555-69.099-20.494c-0.336,0.206-1.012-0.2-1.012-0.2L603.04,1212.929
							c38.544-23.707,25.856-52.161,10.543-77.06c-0.487-0.791-1.466-1.394-1.506-1.37l845.188-519.841
							c-0.04,0.024,0.574,0.853,1.06,1.644C1473.639,641.2,1504.929,649.491,1527.413,635.662z"/>
						<g>
							
								<ellipse transform="matrix(0.7071 -0.7071 0.7071 0.7071 -414.572 1122.7592)" style="fill:#7D97F4;" cx="1148.004" cy="1061.812" rx="180.321" ry="180.321"/>
							<g>
								<path style="fill:#FFFFFF;" d="M1196.216,1174.974l-9.989-16.241c-17.349,9.735-36.552,16.04-51.648,18.148
									c-5.391,0.753-10.488-2.682-12.019-7.905l-5.179-17.665c-1.9-6.48,2.37-13.063,9.043-14.102
									c14.841-2.311,31.815-7.358,47.524-17.02c16.307-10.03,25.068-23.038,18.098-34.371
									c-6.289-10.226-19.426-10.526-45.83-2.667c-37.778,11.046-69.667,11.229-87.176-17.24
									c-15.811-25.706-9.085-56.89,20.299-82.2l-9.99-16.243c-3.214-5.226-1.583-12.069,3.643-15.283l9.542-5.869
									c5.227-3.215,12.069-1.583,15.283,3.643l8.97,14.583c16.053-9.009,29.105-13.343,40.111-15.73
									c5.638-1.223,11.245,2.213,12.876,7.748l4.811,16.325c1.855,6.295-2.093,12.797-8.538,14.036
									c-10.27,1.974-24.069,5.938-39.383,15.357c-19.348,11.901-19.945,23.315-15.525,30.502c5.44,8.844,20.788,7.784,50.7,0.055
									c42.562-11.321,66.666-5.575,83.156,21.235c15.13,24.599,10.489,57.93-21.489,85.219l11.179,18.176
									c3.215,5.226,1.583,12.069-3.643,15.284l-9.543,5.87C1206.274,1181.831,1199.431,1180.201,1196.216,1174.974z"/>
							</g>
						</g>
					</g>
					<path style="opacity:0.7;fill:#FFFFFF;" d="M577.452,1250.56c-0.505-0.181-0.953-0.531-1.258-1.024l-58.278-94.751
						c-0.34-0.554-0.448-1.22-0.296-1.852c0.15-0.633,0.546-1.181,1.1-1.521l258.564-159.034c1.154-0.704,2.661-0.344,3.374,0.806
						c0.71,1.152,0.351,2.662-0.804,3.373l-256.477,157.75l56.995,92.662c0.71,1.152,0.35,2.662-0.804,3.373
						C578.907,1250.747,578.129,1250.803,577.452,1250.56z"/>
					<path style="fill:#FFFFFF;" d="M1517.838,1134.797c-0.505-0.181-0.954-0.531-1.258-1.024c-0.71-1.152-0.351-2.662,0.804-3.373
						l253.266-155.772l-56.996-92.663c-0.71-1.152-0.351-2.662,0.804-3.373c1.152-0.705,2.661-0.344,3.374,0.806l58.28,94.752
						c0.34,0.554,0.448,1.22,0.296,1.853c-0.15,0.633-0.546,1.181-1.1,1.521l-255.353,157.057
						C1519.294,1134.984,1518.515,1135.04,1517.838,1134.797z"/>
				</g>
				<g>
					<path style="fill:#7D97F4;" d="M886.55,1242.217c14.779,24.029,7.281,55.488-16.748,70.267
						c-24.028,14.779-55.487,7.281-70.267-16.748c-14.779-24.028-7.281-55.488,16.747-70.267
						C840.311,1210.691,871.771,1218.189,886.55,1242.217z"/>
					
						<linearGradient id="SVGID_00000096057396447255180120000001589887730727898039_" gradientUnits="userSpaceOnUse" x1="4543.3198" y1="3538.7964" x2="4554.9282" y2="3211.4375" gradientTransform="matrix(0.8518 -0.5239 0.5239 0.8518 -4138.2803 387.5244)">
						<stop  offset="0" style="stop-color:#50E7B7"/>
						<stop  offset="0.9964" style="stop-color:#323992"/>
					</linearGradient>
					
						<circle style="fill:url(#SVGID_00000096057396447255180120000001589887730727898039_);" cx="1497.629" cy="866.367" r="51.078"/>
				</g>
			</g>
		</g>
		<g>
			<g>
				<g>
					<g>
						
							<linearGradient id="SVGID_00000147909314960966730350000000686644363810457234_" gradientUnits="userSpaceOnUse" x1="2313.1616" y1="-506.9155" x2="2293.1287" y2="-153.0025">
							<stop  offset="0" style="stop-color:#FF928E"/>
							<stop  offset="1" style="stop-color:#FE7062"/>
						</linearGradient>
						
							<circle style="fill:url(#SVGID_00000147909314960966730350000000686644363810457234_);" cx="2229.151" cy="977.277" r="272.834"/>
						<g style="opacity:0.7;">
							<path style="fill:#FFFFFF;" d="M2011.654,870.198c-0.377,0-0.76-0.085-1.119-0.267c-1.227-0.62-1.719-2.117-1.1-3.342
								c42.12-83.446,126.31-135.283,219.716-135.283c14.902,0,29.83,1.344,44.371,3.993c1.353,0.245,2.249,1.541,2.003,2.895
								c-0.247,1.351-1.543,2.26-2.895,2c-14.247-2.596-28.875-3.911-43.479-3.911c-91.516,0-174.004,50.79-215.274,132.547
								C2013.44,869.697,2012.564,870.198,2011.654,870.198z"/>
						</g>
						
							<linearGradient id="SVGID_00000136382278837748999190000004953828973713204107_" gradientUnits="userSpaceOnUse" x1="2158.1243" y1="1365.0193" x2="2431.9055" y2="2.7873">
							<stop  offset="0" style="stop-color:#FF928E"/>
							<stop  offset="1" style="stop-color:#FE7062"/>
						</linearGradient>
						
							<circle style="fill:url(#SVGID_00000136382278837748999190000004953828973713204107_);" cx="2234.898" cy="983.024" r="223.242"/>
					</g>
					<g>
						<defs>
							
								<ellipse id="SVGID_00000149369304863352947490000010536742330000857747_" transform="matrix(0.7071 -0.7071 0.7071 0.7071 -30.2973 1860.4666)" cx="2230.633" cy="966.805" rx="236.227" ry="236.227"/>
						</defs>
						<clipPath id="SVGID_00000150822127485354369870000008476122231383112635_">
							<use xlink:href="#SVGID_00000149369304863352947490000010536742330000857747_"  style="overflow:visible;"/>
						</clipPath>
						<g style="clip-path:url(#SVGID_00000150822127485354369870000008476122231383112635_);">
							<g>
								<ellipse style="fill:#FFFFFF;" cx="2134.801" cy="951.92" rx="65.425" ry="97.687"/>
								<path style="fill:#FFFFFF;" d="M2149.952,1031.962c-10.123,0-20.242,0-30.366,0c-2.656,109.863-5.31,219.195-7.966,330.509
									c-0.157,6.596,2.348,11.261,6.956,15.983c4.609,4.722,10.927,6.526,17.525,6.526c5.896,0,11.543-2.817,15.66-7.036
									c4.116-4.219,6.361-6.699,6.219-12.593C2155.306,1253.148,2152.63,1141.825,2149.952,1031.962z"/>
							</g>
							<g>
								<path style="fill:#FFFFFF;" d="M2385.351,858.198l-16.07,0.111V977.03h-10.3V858.413l-17.166,0.104V977.03h-20.599V858.497
									l-17.166-0.103V977.03h-17.166V858.291l-10.285-0.093c0,0-13.784,106.69-11.264,156.157
									c0.31,6.078,4.062,11.841,9.02,16.161c9.205,8.02,27.821,19.09,58.153,19.09c30.036,0,48.32-11.071,57.525-19.09
									c4.958-4.32,7.56-10.083,7.87-16.161C2400.424,964.888,2385.351,858.198,2385.351,858.198z"/>
								<path style="fill:#FFFFFF;" d="M2347.663,1031.962c-10.123,0-20.243,0-30.366,0c-2.656,109.863-5.31,219.195-7.966,330.509
									c-0.157,6.596,2.348,11.261,6.956,15.983c4.609,4.722,10.927,6.526,17.525,6.526c5.896,0,11.542-2.817,15.66-7.036
									c4.116-4.219,6.361-6.699,6.219-12.593C2353.016,1253.148,2350.34,1141.825,2347.663,1031.962z"/>
							</g>
						</g>
					</g>
				</g>
				<g>
					<g>
						
							<linearGradient id="SVGID_00000172421561069714431200000008395190893432965555_" gradientUnits="userSpaceOnUse" x1="2804.2681" y1="-479.1215" x2="2784.2351" y2="-125.2089">
							<stop  offset="0" style="stop-color:#FF928E"/>
							<stop  offset="1" style="stop-color:#FE7062"/>
						</linearGradient>
						
							<circle style="fill:url(#SVGID_00000172421561069714431200000008395190893432965555_);" cx="2700.617" cy="1352.04" r="272.565"/>
						<g>
							<path style="opacity:0.7;fill:#FFFFFF;" d="M2483.335,1245.066c-0.376,0-0.759-0.085-1.118-0.267
								c-1.226-0.619-1.718-2.115-1.099-3.338c42.079-83.364,126.186-135.15,219.5-135.15c14.887,0,29.801,1.343,44.327,3.989
								c1.351,0.245,2.247,1.539,2.001,2.892c-0.247,1.35-1.542,2.258-2.892,1.998c-14.233-2.593-28.846-3.906-43.436-3.906
								c-91.426,0-173.832,50.739-215.061,132.416C2485.12,1244.566,2484.244,1245.066,2483.335,1245.066z"/>
						</g>
						
							<linearGradient id="SVGID_00000138536549937953170370000010882267086076246423_" gradientUnits="userSpaceOnUse" x1="2786.4448" y1="959.3025" x2="3060.2256" y2="-402.9281">
							<stop  offset="0" style="stop-color:#FF928E"/>
							<stop  offset="1" style="stop-color:#FE7062"/>
						</linearGradient>
						
							<circle style="fill:url(#SVGID_00000138536549937953170370000010882267086076246423_);" cx="2706.359" cy="1357.781" r="223.022"/>
					</g>
					<g>
						<path style="fill:#FFFFFF;" d="M2756.411,1510.458h-113.238c-4.418,0-8-3.582-8-8v-283.596c0-4.418,3.582-8,8-8h113.238
							c4.418,0,8,3.582,8,8v283.596C2764.411,1506.877,2760.829,1510.458,2756.411,1510.458z"/>
						<path style="fill:#FFFFFF;" d="M2549.994,1423.154v-113.238c0-4.418,3.582-8,8-8h283.596c4.418,0,8,3.582,8,8v113.238
							c0,4.418-3.582,8-8,8h-283.596C2553.576,1431.154,2549.994,1427.572,2549.994,1423.154z"/>
					</g>
				</g>
				<g>
					<g>
						
							<linearGradient id="SVGID_00000138536065376178729970000018099040649218008729_" gradientUnits="userSpaceOnUse" x1="1315.5979" y1="-563.3839" x2="1295.5652" y2="-209.4711">
							<stop  offset="0" style="stop-color:#FF928E"/>
							<stop  offset="1" style="stop-color:#FE7062"/>
						</linearGradient>
						
							<circle style="fill:url(#SVGID_00000138536065376178729970000018099040649218008729_);" cx="1207.568" cy="1345.147" r="254.015"/>
						<g>
							<path style="opacity:0.7;fill:#FFFFFF;" d="M1005.073,1245.454c-0.351,0-0.707-0.079-1.042-0.249
								c-1.143-0.577-1.601-1.971-1.024-3.111c39.215-77.691,117.598-125.952,204.561-125.952c13.874,0,27.773,1.251,41.31,3.718
								c1.259,0.229,2.094,1.435,1.865,2.695c-0.23,1.258-1.437,2.104-2.695,1.862c-13.264-2.417-26.883-3.641-40.48-3.641
								c-85.204,0-162.002,47.286-200.425,123.404C1006.736,1244.988,1005.92,1245.454,1005.073,1245.454z"/>
						</g>
						
							<linearGradient id="SVGID_00000068652200913931566600000013814306568479340197_" gradientUnits="userSpaceOnUse" x1="1304.8654" y1="893.0042" x2="1578.6464" y2="-469.2274">
							<stop  offset="0" style="stop-color:#FF928E"/>
							<stop  offset="1" style="stop-color:#FE7062"/>
						</linearGradient>
						
							<circle style="fill:url(#SVGID_00000068652200913931566600000013814306568479340197_);" cx="1212.919" cy="1350.497" r="207.844"/>
					</g>
					<g>
						<path style="fill:#FFFFFF;" d="M1399.402,1303.503l-185.795-56.633c-4.189-1.276-8.663-1.276-12.851,0l-185.796,56.633
							c-1.826,0.557-3.073,2.242-3.073,4.151c0,1.909,1.247,3.595,3.073,4.152l185.796,56.632c4.188,1.276,8.662,1.276,12.851,0
							l185.795-56.632c1.826-0.557,3.073-2.242,3.073-4.152C1402.475,1305.744,1401.228,1304.059,1399.402,1303.503z"/>
						<path style="fill:#FFFFFF;" d="M1207.181,1392.748l-129.55-39.488v90.208c0,14.806,10.354,27.612,24.838,30.683
							c69.572,14.751,136.469,15.209,200.525,0.483c14.189-3.262,24.193-15.976,24.193-30.535v-87.929L1207.181,1392.748z"/>
						<path style="fill:#FFFFFF;" d="M1049.017,1429.81c-11.254,5-21.096,5.105-29.526,0.315c-2.465-1.401-3.691-4.28-3.132-7.059
							l18.321-91.092l18.182,90.404C1053.479,1425.447,1051.879,1428.538,1049.017,1429.81z"/>
						<polygon style="fill:#FFFFFF;" points="1207.181,1298.359 1032.014,1316.972 1032.014,1347.359 1037.205,1347.359 
							1037.738,1320.729 						"/>
					</g>
				</g>
				<g>
					<g>
						
							<linearGradient id="SVGID_00000029047521745362257460000014358322685614494904_" gradientUnits="userSpaceOnUse" x1="1709.0042" y1="-541.1143" x2="1688.9713" y2="-187.2017">
							<stop  offset="0" style="stop-color:#FF928E"/>
							<stop  offset="1" style="stop-color:#FE7062"/>
						</linearGradient>
						
							<circle style="fill:url(#SVGID_00000029047521745362257460000014358322685614494904_);" cx="1623.35" cy="972.107" r="273.115"/>
						<g>
							<path style="opacity:0.7;fill:#FFFFFF;" d="M1405.63,864.918c-0.377,0-0.76-0.085-1.12-0.268
								c-1.229-0.62-1.721-2.119-1.101-3.345c42.164-83.532,126.44-135.422,219.942-135.422c14.917,0,29.861,1.345,44.417,3.997
								c1.354,0.246,2.252,1.542,2.005,2.898c-0.247,1.353-1.545,2.263-2.898,2.002c-14.261-2.598-28.905-3.914-43.524-3.914
								c-91.61,0-174.183,50.842-215.495,132.683C1407.418,864.417,1406.541,864.918,1405.63,864.918z"/>
						</g>
						
							<linearGradient id="SVGID_00000072978791754596546220000002505756336102364040_" gradientUnits="userSpaceOnUse" x1="1649.3574" y1="877.0812" x2="1923.1382" y2="-485.1491">
							<stop  offset="0" style="stop-color:#FF928E"/>
							<stop  offset="1" style="stop-color:#FE7062"/>
						</linearGradient>
						
							<circle style="fill:url(#SVGID_00000072978791754596546220000002505756336102364040_);" cx="1629.103" cy="977.86" r="223.472"/>
					</g>
					<path style="fill:#FFFFFF;" d="M1774.886,914.959l-149.343-114.717l-149.343,114.717c-7.247,5.568-3.311,17.158,5.828,17.158
						h21.116c-0.248,1.225-0.38,2.491-0.38,3.79v171.285c0,10.464,8.484,18.947,18.948,18.947h207.665
						c10.464,0,18.947-8.483,18.947-18.947V935.907c0-1.298-0.131-2.565-0.38-3.79h21.116
						C1778.197,932.117,1782.133,920.527,1774.886,914.959z M1674.081,1059.511h-97.076v-97.078h97.076V1059.511z"/>
				</g>
			</g>
			<g>
				<g>
					<path style="fill:#FFFFFF;" d="M1345.14,1644.99c-1.555,0-3.091-0.724-4.069-2.087l-9.743-13.554
						c-1.614-2.243-1.102-5.373,1.145-6.987c2.24-1.608,5.37-1.105,6.987,1.144l9.743,13.554c1.614,2.243,1.102,5.373-1.144,6.987
						C1347.174,1644.683,1346.153,1644.99,1345.14,1644.99z"/>
					<path style="fill:#FFFFFF;" d="M1536.847,1911.713c-1.555,0-3.091-0.724-4.069-2.083l-19.172-26.671
						c-1.614-2.246-1.102-5.377,1.141-6.991c2.25-1.611,5.377-1.102,6.991,1.141l19.172,26.671c1.614,2.247,1.102,5.377-1.141,6.991
						C1538.881,1911.406,1537.861,1911.713,1536.847,1911.713z M1498.506,1858.37c-1.555,0-3.091-0.724-4.069-2.087l-19.172-26.675
						c-1.614-2.243-1.102-5.373,1.144-6.987c2.243-1.608,5.373-1.105,6.987,1.144l19.172,26.675
						c1.614,2.243,1.102,5.373-1.145,6.987C1500.54,1858.063,1499.52,1858.37,1498.506,1858.37z M1460.162,1805.024
						c-1.555,0-3.091-0.724-4.069-2.087l-19.169-26.675c-1.614-2.246-1.102-5.373,1.144-6.987c2.243-1.608,5.373-1.105,6.987,1.144
						l19.169,26.675c1.614,2.246,1.102,5.373-1.145,6.987C1462.196,1804.718,1461.176,1805.024,1460.162,1805.024z
						 M1421.821,1751.678c-1.555,0-3.091-0.724-4.069-2.083l-19.172-26.671c-1.614-2.247-1.102-5.377,1.141-6.991
						c2.247-1.607,5.377-1.105,6.991,1.141l19.172,26.671c1.614,2.247,1.102,5.377-1.141,6.991
						C1423.856,1751.372,1422.835,1751.678,1421.821,1751.678z M1383.48,1698.333c-1.555,0-3.091-0.724-4.069-2.083l-19.172-26.671
						c-1.614-2.247-1.102-5.377,1.141-6.991c2.25-1.607,5.377-1.102,6.991,1.141l19.172,26.671c1.614,2.246,1.102,5.377-1.141,6.991
						C1385.515,1698.026,1384.494,1698.333,1383.48,1698.333z"/>
					<path style="fill:#FFFFFF;" d="M1565.764,1951.944c-1.555,0-3.091-0.724-4.069-2.084l-9.746-13.557
						c-1.614-2.246-1.102-5.377,1.141-6.991c2.246-1.607,5.377-1.105,6.991,1.141l9.746,13.557c1.614,2.247,1.102,5.377-1.141,6.991
						C1567.799,1951.638,1566.778,1951.944,1565.764,1951.944z"/>
				</g>
				<g>
					<path style="fill:#FFFFFF;" d="M2487.358,1617.027c-0.848,0-1.705-0.215-2.494-0.665c-2.396-1.379-3.221-4.441-1.845-6.841
						l8.321-14.474c1.379-2.4,4.441-3.215,6.841-1.845c2.396,1.379,3.221,4.441,1.845,6.841l-8.321,14.474
						C2490.778,1616.128,2489.089,1617.027,2487.358,1617.027z"/>
					<path style="fill:#FFFFFF;" d="M2274.535,1987.253c-0.848,0-1.705-0.215-2.494-0.665c-2.396-1.379-3.221-4.441-1.845-6.841
						l17.737-30.851c1.383-2.4,4.441-3.215,6.841-1.845c2.396,1.379,3.221,4.441,1.845,6.841l-17.737,30.851
						C2277.956,1986.353,2276.267,1987.253,2274.535,1987.253z M2310.007,1925.55c-0.848,0-1.705-0.215-2.491-0.665
						c-2.4-1.379-3.225-4.441-1.849-6.837l17.734-30.854c1.379-2.406,4.444-3.218,6.837-1.849c2.4,1.379,3.225,4.441,1.849,6.837
						l-17.734,30.854C2313.427,1924.65,2311.738,1925.55,2310.007,1925.55z M2345.479,1863.844c-0.848,0-1.705-0.215-2.491-0.665
						c-2.4-1.379-3.225-4.441-1.849-6.837l17.734-30.851c1.379-2.403,4.448-3.218,6.837-1.849c2.4,1.379,3.225,4.441,1.849,6.837
						l-17.734,30.851C2348.899,1862.944,2347.21,1863.844,2345.479,1863.844z M2380.95,1802.139c-0.848,0-1.705-0.215-2.491-0.665
						c-2.4-1.379-3.225-4.441-1.849-6.837l17.734-30.851c1.379-2.406,4.448-3.218,6.837-1.849c2.4,1.379,3.225,4.441,1.849,6.837
						l-17.734,30.851C2384.37,1801.239,2382.681,1802.139,2380.95,1802.139z M2416.421,1740.436c-0.848,0-1.705-0.215-2.491-0.665
						c-2.4-1.379-3.225-4.441-1.849-6.837l17.734-30.851c1.379-2.403,4.447-3.221,6.837-1.849c2.4,1.379,3.224,4.441,1.849,6.837
						l-17.734,30.851C2419.842,1739.536,2418.153,1740.436,2416.421,1740.436z M2451.893,1678.73c-0.848,0-1.705-0.215-2.491-0.665
						c-2.4-1.379-3.225-4.441-1.849-6.837l17.734-30.851c1.379-2.403,4.447-3.218,6.837-1.849c2.4,1.379,3.225,4.441,1.849,6.837
						l-17.734,30.851C2455.313,1677.83,2453.624,1678.73,2451.893,1678.73z"/>
					<path style="fill:#FFFFFF;" d="M2248.48,2032.581c-0.848,0-1.705-0.215-2.491-0.665c-2.4-1.379-3.225-4.441-1.849-6.837
						l8.318-14.474c1.379-2.403,4.447-3.218,6.837-1.849c2.4,1.379,3.225,4.441,1.849,6.837l-8.318,14.474
						C2251.901,2031.681,2250.212,2032.581,2248.48,2032.581z"/>
				</g>
				<g>
					<path style="fill:#FFFFFF;" d="M1659.029,1319.02c-2.282,0-4.346-1.568-4.878-3.89l-3.73-16.27
						c-0.619-2.697,1.066-5.383,3.763-5.999c2.7-0.633,5.383,1.066,5.999,3.763l3.73,16.27c0.62,2.696-1.066,5.383-3.763,5.999
						C1659.776,1318.981,1659.397,1319.02,1659.029,1319.02z"/>
					<path style="fill:#FFFFFF;" d="M1774.136,1820.675c-2.282,0-4.346-1.568-4.878-3.89l-7.193-31.353
						c-0.62-2.693,1.066-5.38,3.763-5.999c2.706-0.623,5.383,1.066,6,3.763l7.193,31.353c0.62,2.693-1.066,5.38-3.763,5.999
						C1774.883,1820.636,1774.505,1820.675,1774.136,1820.675z M1759.747,1757.968c-2.282,0-4.346-1.568-4.878-3.89l-7.193-31.353
						c-0.62-2.693,1.066-5.38,3.763-5.999c2.703-0.623,5.383,1.066,5.999,3.763l7.193,31.353c0.62,2.693-1.066,5.38-3.763,5.999
						C1760.494,1757.929,1760.116,1757.968,1759.747,1757.968z M1745.359,1695.261c-2.282,0-4.346-1.568-4.878-3.89l-7.193-31.353
						c-0.62-2.693,1.066-5.38,3.763-5.999c2.7-0.633,5.383,1.066,5.999,3.763l7.193,31.353c0.62,2.693-1.066,5.38-3.763,5.999
						C1746.105,1695.222,1745.727,1695.261,1745.359,1695.261z M1730.973,1632.554c-2.282,0-4.346-1.568-4.878-3.886l-7.196-31.353
						c-0.62-2.697,1.066-5.383,3.76-6.003c2.723-0.629,5.386,1.069,6.003,3.759l7.196,31.353c0.62,2.696-1.066,5.383-3.759,6.003
						C1731.72,1632.515,1731.342,1632.554,1730.973,1632.554z M1716.584,1569.847c-2.282,0-4.346-1.568-4.878-3.887l-7.196-31.353
						c-0.62-2.697,1.066-5.383,3.76-6.003c2.732-0.629,5.386,1.069,6.003,3.76l7.196,31.353c0.62,2.696-1.066,5.383-3.76,6.003
						C1717.331,1569.808,1716.953,1569.847,1716.584,1569.847z M1702.196,1507.141c-2.282,0-4.346-1.568-4.878-3.89l-7.193-31.353
						c-0.62-2.693,1.066-5.38,3.763-5.999c2.7-0.626,5.383,1.066,5.999,3.763l7.193,31.353c0.62,2.693-1.066,5.38-3.763,5.999
						C1702.942,1507.101,1702.564,1507.141,1702.196,1507.141z M1687.807,1444.434c-2.282,0-4.346-1.568-4.878-3.89l-7.193-31.353
						c-0.62-2.693,1.066-5.38,3.763-6c2.706-0.623,5.383,1.066,5.999,3.763l7.193,31.353c0.62,2.693-1.066,5.38-3.763,5.999
						C1688.553,1444.395,1688.175,1444.434,1687.807,1444.434z M1673.418,1381.727c-2.282,0-4.346-1.568-4.878-3.89l-7.193-31.354
						c-0.62-2.693,1.066-5.38,3.763-5.999c2.703-0.623,5.383,1.066,5.999,3.763l7.193,31.353c0.62,2.693-1.066,5.38-3.763,5.999
						C1674.165,1381.688,1673.786,1381.727,1673.418,1381.727z"/>
					<path style="fill:#FFFFFF;" d="M1785.066,1868.298c-2.282,0-4.346-1.568-4.878-3.887l-3.733-16.27
						c-0.619-2.697,1.066-5.383,3.759-6.003c2.723-0.626,5.386,1.066,6.003,3.759l3.733,16.27c0.62,2.696-1.066,5.383-3.759,6.003
						C1785.812,1868.259,1785.434,1868.298,1785.066,1868.298z"/>
				</g>
				<g>
					<path style="fill:#FFFFFF;" d="M2162.366,1322.391c-0.264,0-0.535-0.02-0.802-0.065c-2.732-0.44-4.588-3.01-4.147-5.739
						l2.657-16.485c0.437-2.729,3.042-4.597,5.739-4.147c2.732,0.44,4.588,3.009,4.147,5.739l-2.657,16.485
						C2166.908,1320.641,2164.779,1322.391,2162.366,1322.391z"/>
					<path style="fill:#FFFFFF;" d="M2086.653,1792.181c-0.264,0-0.535-0.02-0.802-0.065c-2.732-0.44-4.587-3.01-4.147-5.739
						l5.409-33.558c0.44-2.729,3.032-4.604,5.739-4.147c2.732,0.44,4.588,3.01,4.147,5.739l-5.409,33.557
						C2091.195,1790.43,2089.066,1792.181,2086.653,1792.181z M2097.468,1725.066c-0.264,0-0.535-0.02-0.802-0.065
						c-2.732-0.44-4.588-3.01-4.147-5.739l5.409-33.554c0.44-2.732,3.026-4.614,5.739-4.147c2.732,0.44,4.588,3.009,4.147,5.739
						l-5.409,33.554C2102.01,1723.315,2099.884,1725.066,2097.468,1725.066z M2108.287,1657.954c-0.264,0-0.535-0.02-0.802-0.065
						c-2.732-0.437-4.587-3.01-4.147-5.739l5.406-33.557c0.437-2.732,3.013-4.601,5.739-4.147c2.732,0.437,4.588,3.009,4.147,5.739
						l-5.406,33.558C2112.829,1656.203,2110.703,1657.954,2108.287,1657.954z M2119.102,1590.842c-0.264,0-0.535-0.02-0.802-0.065
						c-2.732-0.437-4.587-3.009-4.147-5.739l5.406-33.558c0.437-2.732,3.016-4.623,5.739-4.147c2.732,0.437,4.587,3.01,4.147,5.739
						l-5.406,33.557C2123.644,1589.091,2121.518,1590.842,2119.102,1590.842z M2129.917,1523.727c-0.264,0-0.535-0.02-0.802-0.065
						c-2.732-0.44-4.587-3.009-4.147-5.739l5.409-33.554c0.44-2.732,3.029-4.604,5.739-4.147c2.732,0.44,4.588,3.009,4.147,5.739
						l-5.409,33.554C2134.459,1521.976,2132.33,1523.727,2129.917,1523.727z M2140.732,1456.615c-0.264,0-0.535-0.02-0.802-0.065
						c-2.732-0.44-4.588-3.01-4.147-5.739l5.409-33.558c0.437-2.729,3.022-4.61,5.739-4.147c2.732,0.44,4.587,3.009,4.147,5.739
						l-5.409,33.557C2145.274,1454.864,2143.145,1456.615,2140.732,1456.615z M2151.548,1389.503c-0.264,0-0.535-0.02-0.802-0.065
						c-2.732-0.44-4.588-3.01-4.147-5.739l5.409-33.557c0.437-2.732,3.045-4.604,5.739-4.147c2.732,0.44,4.587,3.01,4.147,5.739
						l-5.409,33.557C2156.09,1387.752,2153.96,1389.503,2151.548,1389.503z"/>
					<path style="fill:#FFFFFF;" d="M2078.59,1842.217c-0.264,0-0.535-0.02-0.802-0.065c-2.732-0.44-4.588-3.01-4.147-5.739
						l2.657-16.482c0.437-2.729,3.042-4.594,5.739-4.147c2.732,0.44,4.588,3.01,4.147,5.739l-2.657,16.482
						C2083.132,1840.466,2081.002,1842.217,2078.59,1842.217z"/>
				</g>
			</g>
		</g>
		<g>
			<g>
				
					<linearGradient id="SVGID_00000071523284559359639240000012713387205044613812_" gradientUnits="userSpaceOnUse" x1="1617.4951" y1="-7540.4829" x2="1524.0089" y2="-7333.4771" gradientTransform="matrix(-1 0 0 1 -536.4754 0)">
					<stop  offset="0" style="stop-color:#FF928E"/>
					<stop  offset="1" style="stop-color:#FE7062"/>
				</linearGradient>
				<path style="fill:url(#SVGID_00000071523284559359639240000012713387205044613812_);" d="M2157.681,2065.281
					c-71.499-82.974-53.369-137.58-19.596-187.236l32.909,168.698L2157.681,2065.281z"/>
				
					<linearGradient id="SVGID_00000046337180620860943180000008564694161974383247_" gradientUnits="userSpaceOnUse" x1="2130.1567" y1="1953.9495" x2="2370.55" y2="1556.6329">
					<stop  offset="0" style="stop-color:#FF928E"/>
					<stop  offset="1" style="stop-color:#FE7062"/>
				</linearGradient>
				<path style="fill:url(#SVGID_00000046337180620860943180000008564694161974383247_);" d="M2157.681,2065.281
					c-32.093-62.412-38.624-124.824-19.596-187.236c-70.638,24.002-114.948,66.009-119.113,135.47L2157.681,2065.281z"/>
				
					<linearGradient id="SVGID_00000166639257120220992650000003679543256847743616_" gradientUnits="userSpaceOnUse" x1="2400.9927" y1="-8462.2227" x2="2297.7161" y2="-8233.5381" gradientTransform="matrix(-1 0 0 1 -536.4754 0)">
					<stop  offset="0" style="stop-color:#FF928E"/>
					<stop  offset="1" style="stop-color:#FE7062"/>
				</linearGradient>
				<path style="fill:url(#SVGID_00000166639257120220992650000003679543256847743616_);" d="M2068.861,2799.403h81.979
					c6.6,0,12-5.4,12-12v-146.788c0-6.6-5.4-12-12-12h-81.979c-6.6,0-12,5.4-12,12v146.788
					C2056.861,2794.003,2062.261,2799.403,2068.861,2799.403z"/>
				
					<linearGradient id="SVGID_00000024691135197001332460000017442436593002391709_" gradientUnits="userSpaceOnUse" x1="2789.0635" y1="-8266.3105" x2="2685.7869" y2="-8037.626" gradientTransform="matrix(-1 0 0 1 -536.4754 0)">
					<stop  offset="0" style="stop-color:#FF928E"/>
					<stop  offset="1" style="stop-color:#FE7062"/>
				</linearGradient>
				<path style="fill:url(#SVGID_00000024691135197001332460000017442436593002391709_);" d="M1599.069,2814.36h81.979
					c6.6,0,12-5.4,12-12v-146.788c0-6.6-5.4-12-12-12h-81.979c-6.6,0-12,5.4-12,12v146.788
					C1587.069,2808.96,1592.469,2814.36,1599.069,2814.36z"/>
				
					<linearGradient id="SVGID_00000070829779642555812960000003377490237515068805_" gradientUnits="userSpaceOnUse" x1="2128.3674" y1="2118.7883" x2="1377.1748" y2="2819.9023">
					<stop  offset="0" style="stop-color:#FEBBBA"/>
					<stop  offset="1" style="stop-color:#FF928E"/>
				</linearGradient>
				<path style="fill:url(#SVGID_00000070829779642555812960000003377490237515068805_);" d="M1850.071,1961.308
					c261.857,0,478.877,144.748,518.067,333.933h38.048c26.238,0,47.508,21.27,47.508,47.507v102.769
					c0,26.238-21.27,47.508-47.508,47.508h-63.691c-73.621,151.274-266.308,259.205-492.424,259.205
					c-289.609,0-524.384-177.054-524.384-395.461C1325.687,2138.362,1560.461,1961.308,1850.071,1961.308z"/>
				
					<linearGradient id="SVGID_00000145059922372662968120000009634984163541278857_" gradientUnits="userSpaceOnUse" x1="-2451.6147" y1="2120.2446" x2="-2196.4316" y2="2120.2446" gradientTransform="matrix(-0.9985 0.0554 0.0554 0.9985 -707.7161 17.3755)">
					<stop  offset="0" style="stop-color:#E1473D"/>
					<stop  offset="1" style="stop-color:#E9605A"/>
				</linearGradient>
				<path style="fill:url(#SVGID_00000145059922372662968120000009634984163541278857_);" d="M1610.618,2031.786
					c97.472-31.598,153.151-40.831,241.051-39.91c2.845,0.03,5.218-2.196,5.335-5.039l0,0c0.122-2.964-2.247-5.452-5.213-5.483
					c-89.297-0.926-145.932,8.423-244.474,40.312c-2.949,0.954-4.452,4.252-3.224,7.099l0.049,0.113
					C1605.218,2031.37,1608.035,2032.623,1610.618,2031.786z"/>
				
					<linearGradient id="SVGID_00000052080759953774196750000005729400828444916149_" gradientUnits="userSpaceOnUse" x1="1677.7169" y1="-7513.2666" x2="1584.2306" y2="-7306.2607" gradientTransform="matrix(-1 0 0 1 -536.4754 0)">
					<stop  offset="0" style="stop-color:#FF928E"/>
					<stop  offset="1" style="stop-color:#FE7062"/>
				</linearGradient>
				<path style="fill:url(#SVGID_00000052080759953774196750000005729400828444916149_);" d="M2068.016,2047.806
					c-96.553-112.048-72.07-185.789-26.463-252.845l44.44,227.812L2068.016,2047.806z"/>
				
					<linearGradient id="SVGID_00000003080865000428614680000006842045696300003772_" gradientUnits="userSpaceOnUse" x1="1735.6066" y1="-7487.125" x2="1642.1202" y2="-7280.1196" gradientTransform="matrix(-1 0 0 1 -536.4754 0)">
					<stop  offset="0" style="stop-color:#FEBBBA"/>
					<stop  offset="1" style="stop-color:#FF928E"/>
				</linearGradient>
				<path style="fill:url(#SVGID_00000003080865000428614680000006842045696300003772_);" d="M2068.016,2047.806
					c-43.338-84.282-52.159-168.563-26.463-252.845c-95.391,32.412-155.226,89.14-160.852,182.94L2068.016,2047.806z"/>
				
					<linearGradient id="SVGID_00000072984522873085362810000018206401862345592464_" gradientUnits="userSpaceOnUse" x1="2437.9138" y1="-7169.9619" x2="2344.4275" y2="-6962.9561" gradientTransform="matrix(-1 0 0 1 -536.4754 0)">
					<stop  offset="0" style="stop-color:#FEBBBA"/>
					<stop  offset="1" style="stop-color:#FF928E"/>
				</linearGradient>
				<path style="fill:url(#SVGID_00000072984522873085362810000018206401862345592464_);" d="M1383.463,2296.917
					c0,0-0.197-1.669-0.566-4.798c-0.092-0.782-0.195-1.656-0.309-2.617c-0.258-1.399-0.539-2.927-0.843-4.577
					c-0.343-1.648-0.713-3.419-1.107-5.309c-0.427-1.853-1.023-3.455-1.594-5.341c-2.212-7.386-6.118-16.023-12.096-24.823
					c-5.973-8.785-14.241-17.674-24.952-24.95c-10.664-7.28-23.806-12.896-38.293-15.183c-3.62-0.487-7.32-0.841-11.04-1.024
					c-1.863,0.012-3.738,0.022-5.623,0.033l-2.827,0.043c0.144-0.011-1.922,0.097-1.113,0.06l-0.14,0.017l-0.281,0.033l-0.563,0.067
					l-1.128,0.133l-2.265,0.268c-0.798,0.103-1.357,0.129-2.628,0.376c-2.228,0.403-4.461,0.851-6.683,1.341
					c-4.069,1.159-7.903,2.289-11.684,4.047c-7.544,3.309-14.71,7.785-20.883,13.47c-6.174,5.671-11.456,12.38-15.51,19.812
					c-4.027,7.431-6.953,15.563-8.193,23.976c-0.567,4.199-1.009,8.431-0.852,12.648l0.044,3.159l0.049,0.945l0.018,0.156
					l0.037,0.313l0.074,0.626l0.148,1.251l0.314,2.566l0.693,3.658c0.259,1.181,0.481,2.503,0.812,3.547l0.997,3.16
					c0.607,2.123,1.555,4.121,2.42,6.139c0.812,2.043,2.025,3.892,3.049,5.817c1.085,1.894,2.411,3.637,3.631,5.428
					c5.215,6.952,11.909,12.62,19.332,16.683c7.427,4.068,15.631,6.481,23.796,7.126c2.037,0.254,4.074,0.19,6.098,0.174
					l1.514-0.021l0.378-0.006l0.189-0.004c-0.065,0.008,1.274-0.066,0.777-0.043l0.598-0.071l2.388-0.281
					c0.625-0.043,2.042-0.32,3.136-0.531c1.136-0.234,2.347-0.455,3.395-0.746c1.985-0.656,4.008-1.156,5.882-2.041
					c15.391-6.28,25.978-20.152,28.863-34.526c0.38-1.798,0.705-3.585,0.819-5.386c0.075-0.897,0.181-1.788,0.215-2.677
					l-0.012-2.658l-0.017-1.319l-0.005-0.328l-0.033-0.811l-0.061-0.519l-0.244-2.066c-0.234-1.546-0.667-3.998-1.173-5.623
					c-0.963-3.448-2.466-6.639-4.196-9.58c-1.846-2.869-3.867-5.552-6.265-7.759c-9.328-9.156-22.334-11.962-31.997-10.333
					c-11.484,1.961-18.462,8.806-22.214,15.326c-1.887,3.267-2.926,6.509-3.451,9.355c-0.585,2.848-0.581,5.319-0.527,7.288
					c0.083,2.049,0.41,3.637,0.65,4.673c0.25,1.042,0.425,1.566,0.425,1.566c1.05,3.161,4.464,4.873,7.625,3.823
					c2.875-0.956,4.551-3.867,4.04-6.765l-0.041-0.228c0,0-0.05-0.283-0.146-0.832c-0.074-0.556-0.174-1.362-0.112-2.464
					c0.122-2.313,0.648-5.829,3.096-9.325c1.207-1.73,2.859-3.432,4.969-4.764c1.083-0.616,2.214-1.236,3.48-1.628
					c1.208-0.489,2.724-0.668,3.636-0.795c0.245-0.051,0.954-0.046,1.414-0.072l0.783-0.028l0.394-0.014
					c-0.753,0.04-0.167,0.015-0.316,0.026l0.073,0.007l0.147,0.014c0.784,0.096,1.584,0.08,2.375,0.229
					c1.581,0.27,3.185,0.628,4.728,1.272c3.092,1.22,6.093,3.175,8.408,5.924c1.229,1.306,2.148,2.898,3.022,4.492
					c0.756,1.665,1.419,3.396,1.744,5.235c0.147,0.493,0.108,0.795,0.166,1.165l0.076,0.531l0.047,0.265l0.022,0.485l0.074,2.079
					l0.019,0.523c-0.048-0.934-0.019-0.203-0.032-0.386l-0.009,0.097l-0.018,0.195l-0.068,0.781l-0.115,1.563
					c-0.066,0.518-0.193,1.029-0.278,1.546c-0.134,1.041-0.436,2.05-0.742,3.058c-2.34,8.064-9.092,15.174-17.446,17.681
					c-1.005,0.417-2.117,0.501-3.156,0.798c-0.491,0.088-0.861,0.075-1.288,0.145c-0.477,0.044-0.617,0.158-1.595,0.164
					l-2.403,0.085l-0.602,0.021c-0.598,0.031,0.641-0.033,0.476-0.032l-0.112-0.01l-0.224-0.021l-0.897-0.08
					c-1.195-0.107-2.396-0.126-3.563-0.415c-4.707-0.795-9.218-2.59-13.178-5.234c-3.951-2.644-7.379-6.104-9.849-10.117
					c-0.533-1.054-1.206-2.019-1.678-3.091c-0.409-1.1-1.049-2.089-1.33-3.229c-0.334-1.114-0.798-2.176-0.971-3.33l-0.384-1.684
					c-0.143-0.568-0.089-0.927-0.166-1.391c-0.05-0.437-0.115-0.869-0.197-1.299l-0.098-2.452l-0.045-1.259l-0.022-0.63
					l-0.011-0.314l-0.005-0.157c-0.013-0.224,0.074,1.351,0.043,0.63l0.167-1.873c0.088-2.5,0.625-4.931,1.125-7.322
					c1.108-4.78,3.239-9.216,5.855-13.179c2.646-3.958,5.908-7.41,9.541-10.213c3.635-2.816,7.723-4.81,11.833-6.195
					c1.994-0.78,4.256-1.137,6.154-1.555c0.822-0.055,1.619-0.151,2.405-0.289c0.227-0.091,1.202-0.095,1.92-0.126l2.279-0.081
					l1.135-0.041l0.566-0.02l0.283-0.01l0.141-0.005c0.904-0.047-1.069,0.057-0.83,0.051l1.679,0.153
					c1.11,0.084,2.215,0.168,3.312,0.251c2.168,0.325,4.291,0.722,6.355,1.157c8.212,2.086,15.302,5.92,20.885,10.498
					c5.605,4.579,9.674,9.868,12.448,14.872c2.768,5.019,4.459,9.707,5.206,13.682c0.185,0.952,0.515,1.987,0.578,2.703
					c0.047,0.696,0.113,1.337,0.192,1.928c0.095,0.596,0.183,1.149,0.264,1.655c0.035,0.968,0.066,1.846,0.094,2.634
					c0.112,3.149,0.172,4.828,0.172,4.828c0.465,13.051,11.421,23.254,24.471,22.789c13.05-0.465,23.253-11.421,22.788-24.472
					C1383.589,2298.219,1383.534,2297.536,1383.463,2296.917z"/>
				<path style="opacity:0.7;fill:#FFFFFF;" d="M1475.917,2575.266c-0.734,0-1.47-0.241-2.09-0.737
					c-45.69-36.723-80.855-79.013-104.52-125.691c-0.835-1.643-0.176-3.655,1.467-4.487c1.637-0.841,3.652-0.179,4.486,1.467
					c23.235,45.827,57.803,87.379,102.753,123.506c1.435,1.154,1.663,3.257,0.509,4.695
					C1477.863,2574.839,1476.895,2575.266,1475.917,2575.266z"/>
				<path style="opacity:0.7;fill:#FFFFFF;" d="M1881.617,2706.917c-113.774,0-231.76-28.442-326.459-79.045
					c-1.624-0.867-2.24-2.892-1.369-4.519c0.867-1.627,2.889-2.237,4.519-1.369c98.824,52.808,223.338,81.22,341.539,78.009
					c123.174-3.368,228.333-39.743,296.113-102.427c1.35-1.249,3.463-1.174,4.718,0.186c1.252,1.353,1.167,3.466-0.186,4.718
					c-68.967,63.783-175.672,100.787-300.463,104.198C1893.909,2706.833,1887.763,2706.917,1881.617,2706.917z"/>
			</g>
			<g>
				
					<linearGradient id="SVGID_00000026848437365975439280000013287214269944399501_" gradientUnits="userSpaceOnUse" x1="2869.292" y1="1072.7937" x2="2775.8088" y2="1279.7928" gradientTransform="matrix(0.9994 0.0349 -0.0349 0.9994 -325.1692 -170.7912)">
					<stop  offset="0" style="stop-color:#E1473D"/>
					<stop  offset="1" style="stop-color:#E9605A"/>
				</linearGradient>
				
					<circle style="fill:url(#SVGID_00000026848437365975439280000013287214269944399501_);" cx="1824.661" cy="2377.707" r="255.192"/>
				
					<linearGradient id="SVGID_00000140007359101436003330000000679059615772115876_" gradientUnits="userSpaceOnUse" x1="2869.2915" y1="1072.795" x2="2775.8079" y2="1279.7946" gradientTransform="matrix(0.9994 0.0349 -0.0349 0.9994 -325.1692 -170.7912)">
					<stop  offset="0" style="stop-color:#FF928E"/>
					<stop  offset="1" style="stop-color:#FE7062"/>
				</linearGradient>
				
					<circle style="fill:url(#SVGID_00000140007359101436003330000000679059615772115876_);" cx="1824.661" cy="2377.707" r="246.707"/>
				<path style="opacity:0.7;fill:#FFFFFF;" d="M1624.765,2272.791c-0.697-0.024-1.399-0.206-2.053-0.567
					c-2.23-1.225-3.043-4.026-1.818-6.252c42.513-77.388,123.697-123.546,211.875-120.467c14.07,0.491,28.118,2.251,41.754,5.234
					c2.486,0.541,4.061,2.995,3.517,5.483c-0.544,2.483-2.98,4.073-5.483,3.512c-13.098-2.86-26.593-4.552-40.109-5.024
					c-84.683-2.957-162.652,41.374-203.482,115.693C1628.101,2271.981,1626.448,2272.85,1624.765,2272.791z"/>
				
					<ellipse transform="matrix(0.7071 -0.7071 0.7071 0.7071 -1149.2747 1991.9386)" style="opacity:0.78;fill:#FFFFFF;" cx="1829.845" cy="2383.267" rx="208.807" ry="208.807"/>
				<g>
					
						<linearGradient id="SVGID_00000137093103499958204540000003772546447303365815_" gradientUnits="userSpaceOnUse" x1="1842.7258" y1="1979.9591" x2="1832.7092" y2="2313.8381">
						<stop  offset="0" style="stop-color:#FF928E"/>
						<stop  offset="1" style="stop-color:#FE7062"/>
					</linearGradient>
					<path style="fill:url(#SVGID_00000137093103499958204540000003772546447303365815_);" d="M1803.949,2537.687l0.793-22.703
						c-23.635-1.774-46.849-8.177-63.221-16.036c-5.846-2.806-8.64-9.575-6.716-15.768l6.506-20.946
						c2.386-7.684,10.964-11.402,18.271-8.034c16.253,7.49,36.426,13.671,58.385,14.438c22.796,0.796,40.066-6.339,40.619-22.181
						c0.499-14.295-12.34-23.253-43.726-32.858c-44.774-13.943-76.542-34.782-75.152-74.578
						c1.255-35.934,28.488-62.448,74.335-68.196l0.793-22.706c0.255-7.306,6.385-13.021,13.691-12.766l13.339,0.466
						c7.306,0.255,13.021,6.384,12.766,13.69l-0.712,20.386c21.87,1.641,37.681,5.943,50.177,10.831
						c6.402,2.503,9.701,9.61,7.671,16.178l-5.987,19.372c-2.309,7.471-10.514,11.32-17.726,8.302
						c-11.494-4.812-27.802-9.973-49.208-10.721c-27.047-0.945-35.164,9.99-35.515,20.036c-0.432,12.364,15.499,21.43,50.28,33.478
						c49.703,16.822,69.837,38.414,68.528,75.893c-1.201,34.387-27.78,64.406-77.505,70.408l-0.888,25.408
						c-0.255,7.306-6.384,13.022-13.69,12.766l-13.341-0.466C1809.41,2551.122,1803.695,2544.992,1803.949,2537.687z"/>
				</g>
			</g>
			
				<linearGradient id="SVGID_00000134965913097995741360000011929643580324649610_" gradientUnits="userSpaceOnUse" x1="-2739.6892" y1="2261.0229" x2="-2814.4824" y2="2222.3713" gradientTransform="matrix(-1 0 0 1 -536.4754 0)">
				<stop  offset="0" style="stop-color:#2B3582"/>
				<stop  offset="0.6502" style="stop-color:#150E42"/>
			</linearGradient>
			
				<circle style="fill:url(#SVGID_00000134965913097995741360000011929643580324649610_);" cx="2231.174" cy="2246.574" r="24.095"/>
		</g>
		<g>
			<g>
				
					<linearGradient id="SVGID_00000150076592839754526860000016459539321081631123_" gradientUnits="userSpaceOnUse" x1="9620.4209" y1="2036.7537" x2="9266.5508" y2="2471.7881" gradientTransform="matrix(0.9922 -0.1247 0.1247 0.9922 -8284.5215 715.4178)">
					<stop  offset="0" style="stop-color:#FEBBBA"/>
					<stop  offset="1" style="stop-color:#FF928E"/>
				</linearGradient>
				<path style="fill:url(#SVGID_00000150076592839754526860000016459539321081631123_);" d="M1481.125,1659.8
					c-2.304-4.404-8.822-3.711-10.152,1.078c-4.925,17.727-16.845,48.662-41.858,59.646c-1.26,0.554-2.453,1.113-3.607,1.676
					c-1.135-3.401-1.151-7.35,1.566-11.504c7.777-11.884-6.261-28.114-6.261-28.114s-0.929,14.295-11.796,23.295
					c-9.359,7.754-13.852,25.006-7.457,39.16c13.537,52.582,33.808,122.127-45.155,172.935
					c-78.962,50.807-190.163-95.885-190.163-95.885l55.192,174.968c0,0,85.189,62.864,184.279-25.534
					c99.09-88.398,33.411-217.03,33.411-217.03S1514.704,1724.002,1481.125,1659.8z"/>
				
					<linearGradient id="SVGID_00000051356973337363776250000008856369270253833650_" gradientUnits="userSpaceOnUse" x1="-9036.3867" y1="3353.3855" x2="-9268.4365" y2="3629.1157" gradientTransform="matrix(-0.9602 0.2794 0.2794 0.9602 -8922.9258 797.6744)">
					<stop  offset="0" style="stop-color:#09005D"/>
					<stop  offset="1" style="stop-color:#1A0F91"/>
				</linearGradient>
				<path style="fill:url(#SVGID_00000051356973337363776250000008856369270253833650_);" d="M1152.415,1565.008
					c0,0,22.877-102.617-94.668-75.453c0,0-57.057-9.323-59.959,44.53c0,0-36.78,24.235-9.85,70.843
					c0,0-109.306-42.22-156.93,53.588c-47.625,95.806-3.848,148.523,42.044,162.254c0,0-37.181,18.669-19.582,60.821
					c17.599,42.152,106.726,71.867,159.375,20.605c0,0,149.81,19.797,146.812-86.02c0,0,69.678-44.996-3.506-132.446
					C1082.965,1596.279,1152.415,1565.008,1152.415,1565.008z"/>
				
					<linearGradient id="SVGID_00000165207589390429760110000006016764489153567909_" gradientUnits="userSpaceOnUse" x1="2725.7354" y1="-6494.4429" x2="2632.249" y2="-6287.437" gradientTransform="matrix(-1 0 0 1 -19.9963 0)">
					<stop  offset="0" style="stop-color:#4F52FF"/>
					<stop  offset="1" style="stop-color:#4042E2"/>
				</linearGradient>
				<path style="fill:url(#SVGID_00000165207589390429760110000006016764489153567909_);" d="M1158.87,1802.865
					c-23.62-7.081-92.395-20.155-157.812,40.214c-11.094,10.239-15.628,25.796-11.672,40.366
					c17.57,64.686,63.928,255.798,23.281,338.49c0,0,71.631,78.964,149.779,15.32c0,0,35.062-152.815,80.987-219.901
					c31.707-46.315-50.557-173.921-71.371-204.75C1168.909,1807.937,1164.264,1804.483,1158.87,1802.865z"/>
				
					<linearGradient id="SVGID_00000129164160905754140820000004955202144447468692_" gradientUnits="userSpaceOnUse" x1="-9372.4092" y1="3839.5188" x2="-9353.5029" y2="3705.2891" gradientTransform="matrix(-0.9602 0.2794 0.2794 0.9602 -8922.9258 797.6744)">
					<stop  offset="0" style="stop-color:#FEBBBA"/>
					<stop  offset="1" style="stop-color:#FF928E"/>
				</linearGradient>
				<path style="fill:url(#SVGID_00000129164160905754140820000004955202144447468692_);" d="M1093.652,1674.351
					c0,0-34.933,98.81-37.561,142.401c0,0,38.608,17.556,74.988-12.076c0,0,3.817-98.695,9.332-116.367L1093.652,1674.351z"/>
				
					<linearGradient id="SVGID_00000062897214099697671360000007410702993995137409_" gradientUnits="userSpaceOnUse" x1="-9459.083" y1="3551.9023" x2="-9282.3115" y2="3755.1426" gradientTransform="matrix(-0.9602 0.2794 0.2794 0.9602 -8922.9258 797.6744)">
					<stop  offset="0" style="stop-color:#FEBBBA"/>
					<stop  offset="1" style="stop-color:#FF928E"/>
				</linearGradient>
				<path style="fill:url(#SVGID_00000062897214099697671360000007410702993995137409_);" d="M1142.175,1539.626
					c0,0,91.368,127.865,36.751,165.006c-54.618,37.14-119.66-53.728-119.66-53.728s-21.201-69.986,0.968-93.727
					C1082.402,1533.434,1142.175,1539.626,1142.175,1539.626z"/>
				
					<linearGradient id="SVGID_00000016786396740097229390000017025123414734381200_" gradientUnits="userSpaceOnUse" x1="-9147.5273" y1="3259.8555" x2="-9379.582" y2="3535.5911" gradientTransform="matrix(-0.9602 0.2794 0.2794 0.9602 -8922.9258 797.6744)">
					<stop  offset="0" style="stop-color:#09005D"/>
					<stop  offset="1" style="stop-color:#1A0F91"/>
				</linearGradient>
				<path style="fill:url(#SVGID_00000016786396740097229390000017025123414734381200_);" d="M1099.883,1509.069
					c0,0,41.974,9.946,47.857,28.937c5.882,18.992-59.524,36.604-77.85,37.465l-14.767,76.638c0,0-43.653-72.094-26.36-113.731
					C1046.054,1496.74,1099.883,1509.069,1099.883,1509.069z"/>
				
					<linearGradient id="SVGID_00000166643773677903899540000017105216521863102099_" gradientUnits="userSpaceOnUse" x1="-9414.918" y1="3513.4851" x2="-9238.1475" y2="3716.7236" gradientTransform="matrix(-0.9602 0.2794 0.2794 0.9602 -8922.9258 797.6744)">
					<stop  offset="0" style="stop-color:#FEBBBA"/>
					<stop  offset="1" style="stop-color:#FF928E"/>
				</linearGradient>
				<path style="fill:url(#SVGID_00000166643773677903899540000017105216521863102099_);" d="M1076.978,1641.495
					c0,0-35.563-41.186-49.708-14.336c-14.146,26.851,32.01,47.01,47.989,33.827L1076.978,1641.495z"/>
				
					<linearGradient id="SVGID_00000169519129794952829410000014450395135417122440_" gradientUnits="userSpaceOnUse" x1="1381.6427" y1="2573.7644" x2="1301.5115" y2="2673.9285">
					<stop  offset="0" style="stop-color:#FEBBBA"/>
					<stop  offset="1" style="stop-color:#FF928E"/>
				</linearGradient>
				<path style="fill:url(#SVGID_00000169519129794952829410000014450395135417122440_);" d="M1253.673,2558.104
					c-0.268,6.937,11.913,61.964,18.541,91.316c2.668,11.81,0.811,24.169-5.203,34.678l-229.571,386.38
					c-2.778,4.674-4.799,9.736-6.028,15.031c-4.207,18.132-12.933,62.569-8.376,102.995l11.875,24.666l-51.363-11.662
					l-11.175-137.933l14.541-8.866c12.561-7.658,22.343-19.109,27.943-32.714c20.758-50.424,72.308-178.779,85.596-241.332
					c15.101-71.092,94.046-128.834,94.046-128.834l-13.869-32.79L1253.673,2558.104z"/>
				
					<linearGradient id="SVGID_00000160913166046110667440000011978938381623118981_" gradientUnits="userSpaceOnUse" x1="1266.0228" y1="2783.2954" x2="1192.5692" y2="2885.6855">
					<stop  offset="0" style="stop-color:#4F52FF"/>
					<stop  offset="1" style="stop-color:#4042E2"/>
				</linearGradient>
				<path style="fill:url(#SVGID_00000160913166046110667440000011978938381623118981_);" d="M926.466,3154.045
					c0,0,27.737-43.974,31-61.092c3.263-17.117,12.347-47.344,29.448-38.245c0,0,8.058,83.151,5.28,115.642
					c-2.777,32.49,36.729,31.445,36.729,31.445s10.888,1.531,18.862,9.502c5.506,5.505,1.568,15.056-6.201,15.556
					c-12.928,0.833-33.464,1.051-55.026-3.115c-7.537-1.456-13.122-7.868-13.579-15.53l-5.692-95.7l-34.987,44.178L926.466,3154.045
					z"/>
				
					<linearGradient id="SVGID_00000152237882172119007520000004297332738356443019_" gradientUnits="userSpaceOnUse" x1="9310.6504" y1="2881.2456" x2="8679.9248" y2="3082.9314" gradientTransform="matrix(1 -0.0095 0.0095 1 -8028.4155 56.9446)">
					<stop  offset="0" style="stop-color:#FEBBBA"/>
					<stop  offset="1" style="stop-color:#FF928E"/>
				</linearGradient>
				<path style="fill:url(#SVGID_00000152237882172119007520000004297332738356443019_);" d="M1116.531,2619.651
					c0,0-8.097,345.614-9.193,394.7c-1.096,49.086,7.751,157.866,56.958,190.381l-21.412,15.852c0,0-26.759-22.743-52.902-66.513
					c-29.367-49.172-38.248-58.155-38.248-58.155l9.745-19.957c4.267-8.738,5.52-18.621,3.555-28.144
					c-10.618-51.467-46.093-222.65-55.77-259.515c-11.423-43.516-12.235-101.629,27.504-150.274
					C1076.509,2589.381,1116.531,2619.651,1116.531,2619.651z"/>
				
					<linearGradient id="SVGID_00000007396833182222591780000018441055184995759521_" gradientUnits="userSpaceOnUse" x1="9038.9463" y1="3191.0332" x2="9185.9014" y2="3191.0332" gradientTransform="matrix(1 -0.0095 0.0095 1 -8028.4155 56.9446)">
					<stop  offset="0" style="stop-color:#4F52FF"/>
					<stop  offset="1" style="stop-color:#4042E2"/>
				</linearGradient>
				<path style="fill:url(#SVGID_00000007396833182222591780000018441055184995759521_);" d="M1071.09,3236.16
					c-1.526,0.014-2.824-1.079-3.039-2.59c-1.639-11.522-8.454-57.716-14.033-69.678c-6.391-13.698-27.263-71.354,0.012-76.249
					c0,0,67.806,99.066,80.822,112.422c13.017,13.358,29.444,4.667,29.444,4.667s12.682,3.747,22.246,15.969
					c4.552,5.817,0.312,14.356-7.074,14.426l-45.672,0.436c-13.264,0.126-25.194-7.931-30.125-20.245
					c-8.04-20.08-21.85-49.533-37.945-62.6l8.363,80.083C1074.276,3234.585,1072.886,3236.144,1071.09,3236.16L1071.09,3236.16z"/>
				
					<linearGradient id="SVGID_00000090278377535334425130000004817213101706518167_" gradientUnits="userSpaceOnUse" x1="-1062.7671" y1="2045.1815" x2="-1137.886" y2="2576.0227" gradientTransform="matrix(-1 0 0 1 -19.9963 0)">
					<stop  offset="0" style="stop-color:#4F52FF"/>
					<stop  offset="1" style="stop-color:#4042E2"/>
				</linearGradient>
				<path style="fill:url(#SVGID_00000090278377535334425130000004817213101706518167_);" d="M1173.256,2199.99
					c0,0-10.292,32.805,5.519,86.836l98.083,342.513c1.541,5.382-1.363,11.015-6.633,12.905
					c-29.338,10.53-125.784,40.292-257.441,31.216c-6.629-0.457-12.187-5.15-13.628-11.637
					c-8.675-39.047-38.273-172.274-44.367-199.648c-23.222-104.306-49.15-216.792,64.914-284.809
					C1072.271,2199.881,1121.3,2213.153,1173.256,2199.99z"/>
			</g>
			<g>
				
					<linearGradient id="SVGID_00000098218767054790601200000011645629834197011331_" gradientUnits="userSpaceOnUse" x1="1202.3479" y1="3191.9373" x2="1266.4832" y2="3191.9373" gradientTransform="matrix(1 0 0 1 -476.932 0)">
					<stop  offset="0" style="stop-color:#4F52FF"/>
					<stop  offset="1" style="stop-color:#4042E2"/>
				</linearGradient>
				<path style="fill:url(#SVGID_00000098218767054790601200000011645629834197011331_);" d="M756.978,3156.166
					c0,0-31.562,7.014-31.562,14.028s21.041,49.097,45.59,56.11c24.549,7.014,21.042-10.521,10.521-21.041
					C771.005,3194.742,767.498,3152.659,756.978,3156.166z"/>
				
					<linearGradient id="SVGID_00000161611151830845649950000013470379190511481526_" gradientUnits="userSpaceOnUse" x1="1270.8491" y1="2931.175" x2="1414.433" y2="2931.175" gradientTransform="matrix(1 0 0 1 -476.932 0)">
					<stop  offset="0" style="stop-color:#FEBBBA"/>
					<stop  offset="1" style="stop-color:#FF928E"/>
				</linearGradient>
				<path style="fill:url(#SVGID_00000161611151830845649950000013470379190511481526_);" d="M898.3,2803.86
					c0,0,35.882,99.638,39.144,140.232c3.262,40.593-133.741,114.399-133.741,114.399l-9.786-33.213
					c0,0,81.549-66.426,78.287-84.877c-3.262-18.452-39.144-125.47-39.144-125.47L898.3,2803.86z"/>
				
					<linearGradient id="SVGID_00000106131183643828363330000017666495971056071823_" gradientUnits="userSpaceOnUse" x1="1189.3" y1="2991.7236" x2="1317.8107" y2="2991.7236" gradientTransform="matrix(1 0 0 1 -476.932 0)">
					<stop  offset="0" style="stop-color:#FEBBBA"/>
					<stop  offset="1" style="stop-color:#FF928E"/>
				</linearGradient>
				<path style="fill:url(#SVGID_00000106131183643828363330000017666495971056071823_);" d="M712.368,2837.072
					c0,0,78.287,125.471,65.239,184.515c-13.048,59.045-32.62,136.542-32.62,136.542s-5.637,6.377,11.908,10.24
					c2.632,0.58,5.334-0.579,6.799-2.842c12.205-18.861,67.2-105.853,75.89-155.01c9.786-55.354-39.144-195.586-39.144-195.586
					L712.368,2837.072z"/>
				
					<linearGradient id="SVGID_00000178911026627780715440000010366902871423302283_" gradientUnits="userSpaceOnUse" x1="-564.2568" y1="2572.1973" x2="-197.728" y2="2845.3774" gradientTransform="matrix(-0.8864 0.2969 0.2693 0.9138 -298.3765 -30.9105)">
					<stop  offset="0" style="stop-color:#09005D"/>
					<stop  offset="1" style="stop-color:#1A0F91"/>
				</linearGradient>
				<path style="fill-rule:evenodd;clip-rule:evenodd;fill:url(#SVGID_00000178911026627780715440000010366902871423302283_);" d="
					M484.689,2465.326c13.282-53.546,51.194-93.023,94.294-104.121c12.963-3.338,24.605-11.104,33.435-21.592
					c16.651-19.773,42.212-29.692,67.271-23.476c0.067,0.017,0.134,0.033,0.202,0.05c11.442,2.879,23.684,0.168,32.401-8.297
					c25.757-25.011,61.495-58.924,123.263-45.568c56.328,12.179,84.409,88.513,68.143,154.089
					c-16.265,65.575-100.419,114.326-156.354,100.452c-7.798-1.934-15.133-4.852-21.938-8.619
					c-9.063-5.017-20.205,0.012-22.755,10.473c-0.052,0.212-0.104,0.423-0.156,0.635c-18.022,72.658-81.389,119.465-141.535,104.546
					C500.817,2608.98,466.667,2537.984,484.689,2465.326z"/>
				
					<linearGradient id="SVGID_00000176022386548694488470000006112035469425511099_" gradientUnits="userSpaceOnUse" x1="-291.0985" y1="2804.0498" x2="-471.1765" y2="3277.5881" gradientTransform="matrix(1 0 0 1 1101.0198 0)">
					<stop  offset="0" style="stop-color:#4F52FF"/>
					<stop  offset="1" style="stop-color:#4042E2"/>
				</linearGradient>
				<path style="fill-rule:evenodd;clip-rule:evenodd;fill:url(#SVGID_00000176022386548694488470000006112035469425511099_);" d="
					M850.985,2659.089c0,0,59.82,113.129,78.657,188.146c0.969,3.859-1.922,7.686-6.464,8.579
					c-8.592,1.689-23.595,5.555-43.409,14.225c-32.128,14.058-60.573,14.646-86.808,11.863c-20.593-2.184-70.78,0.211-91.416,1.342
					c-4.917,0.27-8.979-3.096-8.798-7.29c1.245-28.855,7.134-131.469,29.979-203.739L850.985,2659.089z"/>
				
					<linearGradient id="SVGID_00000006709098830449510660000010519744375493574318_" gradientUnits="userSpaceOnUse" x1="3027.293" y1="-6358.271" x2="2933.8062" y2="-6151.2642" gradientTransform="matrix(-1 0 0 1 -19.9963 0)">
					<stop  offset="0" style="stop-color:#FF928E"/>
					<stop  offset="1" style="stop-color:#FE7062"/>
				</linearGradient>
				<path style="fill:url(#SVGID_00000006709098830449510660000010519744375493574318_);" d="M989.025,2275.69
					c-82.139,75.794-102.203,210.245-159.758,212.696c1.125,1.627,1.715,3.712,1.427,6.235c-0.29,2.535-0.591,5.07-0.898,7.605
					c1.814,2.275,2.862,5.306,2.388,8.885c-2.474,18.716-4.196,37.534-6.684,56.236c205.613-11.42,183.532-293.881,183.532-293.881
					L989.025,2275.69z"/>
				
					<linearGradient id="SVGID_00000097459348342942188860000011906904732289156258_" gradientUnits="userSpaceOnUse" x1="1881.1641" y1="273.5671" x2="1787.6779" y2="480.5729">
					<stop  offset="0" style="stop-color:#FF928E"/>
					<stop  offset="1" style="stop-color:#FE7062"/>
				</linearGradient>
				<path style="fill:url(#SVGID_00000097459348342942188860000011906904732289156258_);" d="M791.655,2476.337
					c19.731-0.639,36.194,0.36,51.833,3.199c27.09,4.917,47.583,27.268,49.851,54.707l17.626,213.273
					c0,0-60.804,99.895-230.359,50.063c-12.304-3.616-19.379-16.51-15.964-28.871l50.987-238.854
					C723.013,2503.135,763.949,2477.234,791.655,2476.337z"/>
				
					<linearGradient id="SVGID_00000064355632418530463750000014292666829684382353_" gradientUnits="userSpaceOnUse" x1="1175.9028" y1="2529.6519" x2="1216.7397" y2="2370.0161" gradientTransform="matrix(-0.9817 -0.1907 -0.1907 0.9817 2457.0447 336.1314)">
					<stop  offset="0" style="stop-color:#FEBBBA"/>
					<stop  offset="1" style="stop-color:#FF928E"/>
				</linearGradient>
				<path style="fill-rule:evenodd;clip-rule:evenodd;fill:url(#SVGID_00000064355632418530463750000014292666829684382353_);" d="
					M794.496,2410.921l-20.33,67.52c-1.617,5.369,1.003,11.095,6.129,13.37c11.727,5.207,33.273,12.844,53.231,9.633
					c5.04-0.811,8.931-4.866,9.419-9.948l6.925-72.07L794.496,2410.921z"/>
				
					<linearGradient id="SVGID_00000021119782108390699370000009125719025501576116_" gradientUnits="userSpaceOnUse" x1="39.8023" y1="2263.5364" x2="485.2899" y2="1962.9663" gradientTransform="matrix(-0.9157 0.4026 0.4157 0.9649 -999.871 -11.2313)">
					<stop  offset="0" style="stop-color:#FEBBBA"/>
					<stop  offset="1" style="stop-color:#FF928E"/>
				</linearGradient>
				<path style="fill-rule:evenodd;clip-rule:evenodd;fill:url(#SVGID_00000021119782108390699370000009125719025501576116_);" d="
					M743.431,2393.452c15.652,44.958,58.353,81.827,110.054,61.625c35.77-13.978,40.113-51.557,24.462-96.515
					c-15.652-44.958-55.288-73.661-91.557-61.034C750.12,2310.155,727.779,2348.494,743.431,2393.452z"/>
				
					<linearGradient id="SVGID_00000047740545118222901050000006656045021528182706_" gradientUnits="userSpaceOnUse" x1="405.8776" y1="1853.0443" x2="851.3519" y2="1552.4833" gradientTransform="matrix(-0.9656 0.2601 0.2601 0.9656 -929.4325 -35.5912)">
					<stop  offset="0" style="stop-color:#FEBBBA"/>
					<stop  offset="1" style="stop-color:#FF928E"/>
				</linearGradient>
				<path style="fill-rule:evenodd;clip-rule:evenodd;fill:url(#SVGID_00000047740545118222901050000006656045021528182706_);" d="
					M759.078,2401.877c0,0-13.501-24.442-22.4-10.738c-8.9,13.704,22.781,35.682,31.386,33.785
					C776.667,2423.029,759.078,2401.877,759.078,2401.877z"/>
				
					<linearGradient id="SVGID_00000172424637296586025980000005888020120045080458_" gradientUnits="userSpaceOnUse" x1="-805.6784" y1="1975.5372" x2="-1061.0836" y2="2255.9819" gradientTransform="matrix(-1 0 0 1 -19.9963 0)">
					<stop  offset="0" style="stop-color:#FEBBBA"/>
					<stop  offset="1" style="stop-color:#FF928E"/>
				</linearGradient>
				<path style="fill:url(#SVGID_00000172424637296586025980000005888020120045080458_);" d="M980.672,2275.538
					c0,0,18.426-60.999,45.384-73.59c26.957-12.591,41.167-8.988,41.167-8.988s6.951,10.99-4.256,20.271
					c-11.207,9.28-46.43,68.617-63.059,75.575C983.279,2295.763,980.672,2275.538,980.672,2275.538z"/>
				
					<linearGradient id="SVGID_00000055695405551222750360000006182991514871421324_" gradientUnits="userSpaceOnUse" x1="4484.4448" y1="-8550.7295" x2="4390.9546" y2="-8343.7139" gradientTransform="matrix(-0.9407 0.3392 0.3392 0.9407 -1104.1056 -34.8673)">
					<stop  offset="0" style="stop-color:#FF928E"/>
					<stop  offset="1" style="stop-color:#FE7062"/>
				</linearGradient>
				<path style="fill:url(#SVGID_00000055695405551222750360000006182991514871421324_);" d="M565.167,2703.988
					c94.978-58.912,133.402-130.239,151.136-185.05c14.594-20.005,38.502-36.126,59.484-13.688
					c13.282,14.204,16.717,35.149,9.497,53.206c-69.12,172.863-204.958,170.786-204.958,170.786L565.167,2703.988z"/>
				
					<linearGradient id="SVGID_00000105398370328168123990000005941845359087970226_" gradientUnits="userSpaceOnUse" x1="4687.4829" y1="1988.1897" x2="4763.9785" y2="1988.1897" gradientTransform="matrix(-0.2034 0.7336 0.9119 0.2528 -304.8559 -1240.3043)">
					<stop  offset="0" style="stop-color:#FEBBBA"/>
					<stop  offset="1" style="stop-color:#FF928E"/>
				</linearGradient>
				<path style="fill:url(#SVGID_00000105398370328168123990000005941845359087970226_);" d="M570.417,2705.424
					c0,0-40.043-5.463-52.113,14.079c-12.069,19.542-4.71,22.979-4.71,22.979c4.835,5.119,12.461,16.972,20.175,8.091
					c7.68-8.843,42.135-16.927,48.824-29.06C589.281,2709.381,570.417,2705.424,570.417,2705.424z"/>
				
					<linearGradient id="SVGID_00000150787451605607886100000002598176099977439167_" gradientUnits="userSpaceOnUse" x1="-458.5224" y1="2397.0679" x2="-113.413" y2="2654.2839" gradientTransform="matrix(-0.981 0.1941 0.1941 0.981 33.4355 -106.8514)">
					<stop  offset="0" style="stop-color:#09005D"/>
					<stop  offset="1" style="stop-color:#1A0F91"/>
				</linearGradient>
				<path style="fill-rule:evenodd;clip-rule:evenodd;fill:url(#SVGID_00000150787451605607886100000002598176099977439167_);" d="
					M734.439,2385.313c0,0,50.376,38.731,56.107-60.52c0,0,26.916,24.746,32.653-2.201c0,0,46.438,7.523,48.126-11.758
					c1.688-19.281-71.026-58.328-116.464-13.589C709.423,2341.983,734.439,2385.313,734.439,2385.313z"/>
			</g>
			
				<linearGradient id="SVGID_00000165214172769371354150000017074454132845163162_" gradientUnits="userSpaceOnUse" x1="-975.2675" y1="1896.1146" x2="-1000.3074" y2="2366.8604" gradientTransform="matrix(-1 0 0 1 -19.9963 0)">
				<stop  offset="0" style="stop-color:#FEBBBA"/>
				<stop  offset="1" style="stop-color:#FF928E"/>
			</linearGradient>
			<path style="fill:url(#SVGID_00000165214172769371354150000017074454132845163162_);" d="M991.733,1856.262
				c0,0-111.068,96.952-137.934,230.277c-26.867,133.323,164.153,148.795,164.153,148.795s25.725-30.292,56.566-19.219
				c30.841,11.072,2.044-53.155-33.959-53.229c-36.002-0.074-19.132,30.004-70.218,5.378
				c-49.766-23.989-80.898-97.355,44.98-207.407c7.297-6.379,13.1-14.535,16.565-23.851
				C1056.062,1872.01,1036.284,1829.165,991.733,1856.262z"/>
		</g>
		<g>
			
				<linearGradient id="SVGID_00000036252504453626566370000014312732193015109548_" gradientUnits="userSpaceOnUse" x1="387.7158" y1="2088.9224" x2="180.7674" y2="2088.9224" gradientTransform="matrix(1 0 0 1 2328.9077 0)">
				<stop  offset="0" style="stop-color:#FEBBBA"/>
				<stop  offset="1" style="stop-color:#FF928E"/>
			</linearGradient>
			<path style="fill:url(#SVGID_00000036252504453626566370000014312732193015109548_);" d="M2509.675,2046.528
				c0,0,76.867,177.385,124.169,153.734c47.302-23.652,82.779-218.774,82.779-218.774S2568.803,1946.01,2509.675,2046.528z"/>
			
				<linearGradient id="SVGID_00000023267150186270583440000009697491235392400773_" gradientUnits="userSpaceOnUse" x1="2026.0074" y1="2830.9114" x2="2030.4324" y2="3317.6113" gradientTransform="matrix(-1 0 0 1 4707.2061 0)">
				<stop  offset="0" style="stop-color:#4F52FF"/>
				<stop  offset="1" style="stop-color:#4042E2"/>
			</linearGradient>
			<path style="fill:url(#SVGID_00000023267150186270583440000009697491235392400773_);" d="M2777.306,3147.297
				c0,0,6.426,36.379,9.576,72.389c1.231,14.074-9.619,26.293-23.734,26.882c-47.955,1.997-150.534,5.881-187.344,4.238
				c-5.533-0.247-9.151-5.912-7.104-11.058l0,0c1.716-4.313,5.027-7.8,9.243-9.738l169.443-77.875L2777.306,3147.297z"/>
			
				<linearGradient id="SVGID_00000060724382341624193860000011734880305668703917_" gradientUnits="userSpaceOnUse" x1="1924.6362" y1="3147.147" x2="1979.7511" y2="3147.147" gradientTransform="matrix(-1 0 0 1 4707.2061 0)">
				<stop  offset="0" style="stop-color:#FEBBBA"/>
				<stop  offset="1" style="stop-color:#FF928E"/>
			</linearGradient>
			<path style="fill:url(#SVGID_00000060724382341624193860000011734880305668703917_);" d="M2782.57,3125.922l-5.163,43.513
				c0,0-29.682,13.817-49.952-1.742l12.292-48.492L2782.57,3125.922z"/>
			
				<linearGradient id="SVGID_00000063633242353052968290000009042161660699759752_" gradientUnits="userSpaceOnUse" x1="1862.3621" y1="3356.8586" x2="1899.9786" y2="2347.5005" gradientTransform="matrix(-1 0 0 1 4707.2061 0)">
				<stop  offset="0" style="stop-color:#4F52FF"/>
				<stop  offset="1" style="stop-color:#4042E2"/>
			</linearGradient>
			<path style="fill:url(#SVGID_00000063633242353052968290000009042161660699759752_);" d="M2778.69,2307.858
				c2.23,11.363,11.97,567.053-47.429,816.076c-0.969,4.063,1.091,8.251,4.958,9.831c9.11,3.722,26.97,9.113,48.376,9.831
				c6.628,0.222,12.572-4.085,14.441-10.449c16.979-57.777,98.34-347.257,108.953-623.79c11.86-308.998,0-10.521,0-10.521
				l-6.955-191.003L2778.69,2307.858z"/>
			
				<linearGradient id="SVGID_00000013880054574597850250000009079644973363214757_" gradientUnits="userSpaceOnUse" x1="1755.0746" y1="2833.3762" x2="1759.4995" y2="3320.075" gradientTransform="matrix(-1 0 0 1 4707.2061 0)">
				<stop  offset="0" style="stop-color:#4F52FF"/>
				<stop  offset="1" style="stop-color:#4042E2"/>
			</linearGradient>
			<path style="fill:url(#SVGID_00000013880054574597850250000009079644973363214757_);" d="M2972.219,3166.275
				c0,0,10.229,18.365,20.132,67.166c1.788,8.813-4.37,17.248-13.319,18.128c-15.835,1.557-40.212,3.56-59.74,3.425
				c-9.001-0.062-16.026-7.899-14.942-16.835c2.164-17.813,8.902-47.038,29.718-69.816L2972.219,3166.275z"/>
			
				<linearGradient id="SVGID_00000065784273432638415280000009464069862156402102_" gradientUnits="userSpaceOnUse" x1="1726.0023" y1="3144.3208" x2="1773.5887" y2="3144.3208" gradientTransform="matrix(-1 0 0 1 4707.2061 0)">
				<stop  offset="0" style="stop-color:#FEBBBA"/>
				<stop  offset="1" style="stop-color:#FF928E"/>
			</linearGradient>
			<path style="fill:url(#SVGID_00000065784273432638415280000009464069862156402102_);" d="M2981.204,3110.308l-12.063,65.804
				c0,0-11.928,8.872-35.523,2.44l5.758-70.8L2981.204,3110.308z"/>
			
				<linearGradient id="SVGID_00000126281514866684357270000004347401559517298321_" gradientUnits="userSpaceOnUse" x1="1769.3306" y1="3353.3918" x2="1806.947" y2="2344.0359" gradientTransform="matrix(-1 0 0 1 4707.2061 0)">
				<stop  offset="0" style="stop-color:#4F52FF"/>
				<stop  offset="1" style="stop-color:#4042E2"/>
			</linearGradient>
			<path style="fill:url(#SVGID_00000126281514866684357270000004347401559517298321_);" d="M3013.792,2324.91
				c48.581,293.186-10.538,724.635-30.477,809.08c-1.22,5.17-5.393,9.131-10.633,10c-8.899,1.475-23.552,2.679-37.998-1.517
				c-4.977-1.445-8.473-5.934-8.677-11.114c-2.675-68.271,2.14-487.39-43.126-653.028c-2.294-8.394-7.421-15.714-14.513-20.757
				l-87.858-62.459l-6.736-100.96L3013.792,2324.91z"/>
			<g>
				
					<linearGradient id="SVGID_00000085239383073594710060000010831636646660797856_" gradientUnits="userSpaceOnUse" x1="3542.7502" y1="561.6194" x2="3375.8103" y2="922.2097">
					<stop  offset="0" style="stop-color:#FF928E"/>
					<stop  offset="1" style="stop-color:#FE7062"/>
				</linearGradient>
				<path style="fill:url(#SVGID_00000085239383073594710060000010831636646660797856_);" d="M2698.885,1780.451
					c177.385-17.739,311.576,27.153,311.576,27.153c43.397,253.216,7.589,545.283,7.589,545.283
					c-112.709,29.558-239.852-18.072-239.852-18.072c-18.733-105.838-106.136-403.702-106.136-403.702
					C2600.928,1922.286,2654.198,1784.92,2698.885,1780.451z"/>
			</g>
			
				<linearGradient id="SVGID_00000109009286854246749360000007205339820721985698_" gradientUnits="userSpaceOnUse" x1="3684.5859" y1="627.2849" x2="3517.6458" y2="987.8754">
				<stop  offset="0" style="stop-color:#FF928E"/>
				<stop  offset="1" style="stop-color:#FE7062"/>
			</linearGradient>
			<path style="fill:url(#SVGID_00000109009286854246749360000007205339820721985698_);" d="M2954.62,1948.575l55.841-140.971
				c0,0,135.986,92.397,158.35,209.545c-25.695,1.893-72.45,8.575-118.215,31.684
				C3040.539,1993.518,2954.62,1948.575,2954.62,1948.575z"/>
			
				<linearGradient id="SVGID_00000077283123312548042170000008033309796204534151_" gradientUnits="userSpaceOnUse" x1="1537.1056" y1="2107.3555" x2="1903.4526" y2="2107.3555" gradientTransform="matrix(-1 0 0 1 4707.2061 0)">
				<stop  offset="0" style="stop-color:#FEBBBA"/>
				<stop  offset="1" style="stop-color:#FF928E"/>
			</linearGradient>
			<path style="fill:url(#SVGID_00000077283123312548042170000008033309796204534151_);" d="M2823.958,2081.224
				c0,0,157.05,87.555,208.566,13.877c10.696-15.298,19.839-34.874,17.205-49.37c45.766-23.108,92.492-28.776,118.187-30.669
				c6.743,35.317-2.436,75.737-23.189,113.699c-90.239,165.072-340.973-9.894-340.973-9.894L2823.958,2081.224z"/>
			<g>
				
					<linearGradient id="SVGID_00000057828067677800716550000016322921077064543674_" gradientUnits="userSpaceOnUse" x1="443.3863" y1="1756.093" x2="287.3853" y2="2122.0959" gradientTransform="matrix(1 0 0 1 2328.9077 0)">
					<stop  offset="0" style="stop-color:#09005D"/>
					<stop  offset="1" style="stop-color:#1A0F91"/>
				</linearGradient>
				<path style="fill:url(#SVGID_00000057828067677800716550000016322921077064543674_);" d="M2842.303,2190.385l-83.326-290.993
					c-0.946-3.303-3.763-5.713-7.177-6.11c-15.097-1.761-58.842-6.706-109.351-10.978c-60.841-5.146-131.493-9.316-173.714-5.769
					c-6.002,0.504-9.629,6.853-6.96,12.252c24.009,48.573,122.766,246.156,172.221,310.882c1.639,2.145,4.173,3.398,6.87,3.373
					l193.33-1.799C2839.822,2201.19,2843.851,2195.793,2842.303,2190.385z"/>
				
					<linearGradient id="SVGID_00000112625209647732687300000015936193893576516489_" gradientUnits="userSpaceOnUse" x1="2133.9299" y1="1726.0795" x2="2092.2012" y2="1909.3231" gradientTransform="matrix(-1 0 0 1 4707.2061 0)">
					<stop  offset="0" style="stop-color:#4F52FF"/>
					<stop  offset="1" style="stop-color:#4042E2"/>
				</linearGradient>
				<path style="fill:url(#SVGID_00000112625209647732687300000015936193893576516489_);" d="M2633.804,1857.075l-60.413-10.066
					c-3.218-0.536-5.853,2.538-4.83,5.635l5.981,18.123c0.521,1.578,1.896,2.719,3.543,2.939l58.135,7.766
					c3.008,0.401,5.487-2.332,4.796-5.286l-3.702-15.822C2636.915,1858.66,2635.531,1857.363,2633.804,1857.075z"/>
				
					<linearGradient id="SVGID_00000160148452180340313910000009291737938420700589_" gradientUnits="userSpaceOnUse" x1="2112.0913" y1="1802.9449" x2="2092.134" y2="1922.6879" gradientTransform="matrix(-1 0 0 1 4707.2061 0)">
					<stop  offset="0" style="stop-color:#4F52FF"/>
					<stop  offset="1" style="stop-color:#4042E2"/>
				</linearGradient>
				<path style="fill:url(#SVGID_00000160148452180340313910000009291737938420700589_);" d="M2679.04,1908.22l-4.977-25.924
					c-0.499-2.6-2.646-4.564-5.28-4.832l-122.019-12.382c-4.107-0.416-7.396,3.347-6.433,7.361l7.759,32.304
					c0.621,2.584,2.87,4.45,5.526,4.584l119.238,6.003C2676.735,1915.53,2679.773,1912.035,2679.04,1908.22z"/>
				
					<linearGradient id="SVGID_00000125588047928790161780000004780176076759585939_" gradientUnits="userSpaceOnUse" x1="1876.9968" y1="2070.7451" x2="1988.0095" y2="2070.7451" gradientTransform="matrix(-1 0 0 1 4707.2061 0)">
					<stop  offset="0" style="stop-color:#FEBBBA"/>
					<stop  offset="1" style="stop-color:#FF928E"/>
				</linearGradient>
				<path style="fill:url(#SVGID_00000125588047928790161780000004780176076759585939_);" d="M2822.171,2120.081
					c0,0,11.607-47.729,6.926-64.662c-4.682-16.933-13.754-38.705-43.993-33.867c-30.237,4.838-65.907,17.576-65.907,17.576
					s1.802,22.057,24.783,14.94l-14.251,11.028c0,0,2.038,17.66,21.45,8.225l-13.255,14.624c0,0,8.336,14.505,22.618,5.202
					C2774.823,2083.842,2781.67,2125.829,2822.171,2120.081z"/>
				
					<linearGradient id="SVGID_00000015318712899663590230000012699578350986409862_" gradientUnits="userSpaceOnUse" x1="69.9594" y1="1417.1346" x2="180.9768" y2="1417.1346" gradientTransform="matrix(0.8472 -0.5312 0.5312 0.8472 1667.2858 848.1048)">
					<stop  offset="0" style="stop-color:#FEBBBA"/>
					<stop  offset="1" style="stop-color:#FF928E"/>
				</linearGradient>
				<path style="fill:url(#SVGID_00000015318712899663590230000012699578350986409862_);" d="M2512.356,2049.068
					c0,0-35.188-34.272-40.218-51.104c-5.028-16.834-8.907-40.099,19.281-52.064c28.188-11.963,65.176-20.12,65.176-20.12
					s10.19,19.644-13.061,25.823l17.932,1.772c0,0,7.655,16.045-13.803,18.363l18.998,5.348c0,0,0.643,16.718-16.399,16.422
					C2533.22,1993.213,2549.723,2032.422,2512.356,2049.068z"/>
			</g>
			
				<linearGradient id="SVGID_00000116941839258180137440000004901195245622410940_" gradientUnits="userSpaceOnUse" x1="1826.6475" y1="1738.1757" x2="1967.5295" y2="1738.1757" gradientTransform="matrix(-1 0 0 1 4707.2061 0)">
				<stop  offset="0" style="stop-color:#FEBBBA"/>
				<stop  offset="1" style="stop-color:#FF928E"/>
			</linearGradient>
			<path style="fill:url(#SVGID_00000116941839258180137440000004901195245622410940_);" d="M2833.965,1662.195l46.324,133.965
				c0.768,2.218-0.145,4.676-2.2,5.813c-12.628,6.981-58.121,27.162-112.944-7.598c-5.712-3.62-9.599-9.526-10.467-16.233
				l-15.001-115.946H2833.965z"/>
			<g>
				
					<linearGradient id="SVGID_00000058570090342351796090000000338409417819702666_" gradientUnits="userSpaceOnUse" x1="-3964.3167" y1="-252.1677" x2="-4016.9626" y2="-425.8067" gradientTransform="matrix(-0.746 -0.6659 -0.6659 0.746 -419.1294 -803.1727)">
					<stop  offset="0" style="stop-color:#FEBBBA"/>
					<stop  offset="1" style="stop-color:#FF928E"/>
				</linearGradient>
				<path style="fill:url(#SVGID_00000058570090342351796090000000338409417819702666_);" d="M2733.172,1538.14
					c0,0-50.867,95.754-44.347,134.433c6.52,38.68,69.564,35.903,124.615,4.488l38.468-103.392L2733.172,1538.14z"/>
				
					<linearGradient id="SVGID_00000070809101083963240180000005571845009831560073_" gradientUnits="userSpaceOnUse" x1="-4011.814" y1="-554.7082" x2="-3967.7759" y2="-303.5277" gradientTransform="matrix(-0.746 -0.6659 -0.6659 0.746 -419.1294 -803.1727)">
					<stop  offset="0" style="stop-color:#09005D"/>
					<stop  offset="1" style="stop-color:#1A0F91"/>
				</linearGradient>
				<path style="fill:url(#SVGID_00000070809101083963240180000005571845009831560073_);" d="M2811.005,1626.286
					c-2.237-0.991-3.062-3.729-1.722-5.776c4.075-6.226,11.715-18.927,14.152-30.048c0,0,9.145-5.857-23.274-13.616
					c-32.419-7.76-80.764-19.805-90.926-47.399c-9.908-26.904,16.123-94.564,57.654-40.654c1.58,2.051,4.675,2.097,6.253,0.043
					c6.809-8.861,24.708-27.254,49.558-16.103c23.256,10.435,25.874,27.475,25.555,36.065c-0.093,2.526,2.165,4.49,4.649,4.017
					c11.758-2.242,39.973-4.169,53.142,24.776c10.848,23.84,3.798,37.337-2.624,43.937c-2.08,2.138-1.169,5.66,1.684,6.533
					c7.727,2.365,17.706,8.918,16.707,27.021c-1.381,25.028-29.364,22.824-37.331,21.682c-1.306-0.186-2.621,0.261-3.505,1.239
					c-6.831,7.56-37.61,39.659-70.922,43.528c-2.884,0.335-5.119-2.514-4.175-5.258l14.417-41.906
					c0.669-1.946-0.262-4.082-2.144-4.915L2811.005,1626.286z"/>
				
					<linearGradient id="SVGID_00000008136119233990713460000001133600679458910615_" gradientUnits="userSpaceOnUse" x1="-4018.134" y1="-252.9766" x2="-4065.5" y2="-409.201" gradientTransform="matrix(-0.746 -0.6659 -0.6659 0.746 -419.1294 -803.1727)">
					<stop  offset="0" style="stop-color:#FEBBBA"/>
					<stop  offset="1" style="stop-color:#FF928E"/>
				</linearGradient>
				<path style="fill:url(#SVGID_00000008136119233990713460000001133600679458910615_);" d="M2805.211,1632.234
					c0,0,36.218-24.85,38.864-3.923c2.647,20.926-32.614,30.311-50.079,22.51L2805.211,1632.234z"/>
			</g>
		</g>
	</g>
</g>
</svg>
