<?xml version="1.0" encoding="utf-8"?>
<!-- Generator: Adobe Illustrator 27.5.0, SVG Export Plug-In . SVG Version: 6.00 Build 0)  -->
<svg version="1.1" xmlns="http://www.w3.org/2000/svg" xmlns:xlink="http://www.w3.org/1999/xlink" x="0px" y="0px"
	 viewBox="0 0 3710 3710" style="enable-background:new 0 0 3710 3710;" xml:space="preserve">
<g id="Background">
	<g>
		<g>
			<rect style="fill:#FFFFFF;" width="3710" height="3710"/>
		</g>
	</g>
</g>
<g id="Illustration">
	<g>
		<linearGradient id="SVGID_1_" gradientUnits="userSpaceOnUse" x1="3460.9072" y1="3595.385" x2="1544.9005" y2="1555.7654">
			<stop  offset="0" style="stop-color:#DAE3FE"/>
			<stop  offset="1" style="stop-color:#E9EFFD"/>
		</linearGradient>
		<path style="fill:url(#SVGID_1_);" d="M2885.628,2777.098c-70.731,72.907-134.019,115.765-182.474,148.119
			c-472.575,315.542-1012.78,224.596-1179.798,193.51c-269.463-50.153-496.927-85.533-692.359-262.098
			c-444.081-401.21-422.482-1238.163-83.15-1756.619c40.235-61.474,379.053-563.708,920.427-634.477
			c13.241-1.731,23.121-2.717,31.774-3.633c83.749-8.867,602.727-55.666,1025.902,298.87
			c60.576,50.75,158.059,142.29,248.458,281.904C3304.947,1553.164,3305.994,2343.801,2885.628,2777.098z"/>
		<g>
			<g>
				<path style="fill:#BDD0FB;" d="M576.225,1360.72c3.307-11.045,19.258-10.313,21.49,0.998
					c21.586,109.352,87.172,394.319,210.181,552.489c200.287,257.537,315.432,659.176,159.089,850.183
					C966.985,2764.39,215.911,2564.113,576.225,1360.72z"/>
				<path style="opacity:0.43;fill:#FFFFFF;" d="M585.309,1515.041c-0.004,3.518,0.271,6.422,0.432,9.557l0.672,9.234l1.547,18.433
					c1.115,12.277,2.418,24.534,3.722,36.79c2.695,24.502,5.695,48.968,8.919,73.407c6.539,48.866,14.4,97.548,22.991,146.101
					c8.524,48.57,18.406,96.902,29.308,145.004c10.944,48.09,22.573,96.045,35.773,143.591
					c26.209,95.126,57.617,188.917,95.526,280.112c19.43,45.388,40.057,90.293,63.245,133.905
					c23.492,43.429,48.844,85.882,77.177,126.295c0.616,0.879,1.828,1.092,2.707,0.475c0.857-0.601,1.081-1.768,0.52-2.641
					l-0.015-0.022c-26.645-41.332-51.021-84.021-73.251-127.815c-22.355-43.738-42.146-88.736-60.737-134.181
					c-18.571-45.469-35.307-91.678-50.99-138.232c-15.667-46.572-29.399-93.769-42.862-141.029
					c-26.53-94.663-47.992-190.705-66.799-287.241c-9.301-48.294-17.63-96.78-25.096-145.403
					c-3.772-24.306-7.321-48.648-10.568-73.031l-4.582-36.607l-2.103-18.319l-0.949-9.161c-0.262-3.005-0.595-6.232-0.716-8.871
					l-0.02-0.436c-0.049-1.063-0.95-1.885-2.012-1.837C586.117,1513.167,585.313,1514.02,585.309,1515.041z"/>
			</g>
			<g>
				<path style="fill:#91B3FA;" d="M966.103,1146.947c6.045-9.226,20.474-4.204,19.436,6.778
					c-10.036,106.171-27.631,385.391,42.026,563.998c113.417,290.813,109.443,690.548-86.039,823.061
					C941.525,2540.784,307.388,2152.225,966.103,1146.947z"/>
				<path style="opacity:0.43;fill:#FFFFFF;" d="M932.302,1290.934c-0.967,3.232-1.506,5.967-2.216,8.886l-1.905,8.652
					l-3.615,17.325c-2.33,11.563-4.481,23.158-6.631,34.753c-4.217,23.204-8.146,46.459-11.861,69.75
					c-7.343,46.596-13.419,93.385-18.792,140.255c-5.441,46.867-9.566,93.886-12.692,140.974
					c-3.085,47.087-5.505,94.238-6.373,141.443c-1.918,94.388,1.307,188.972,11.199,282.948
					c5.444,46.925,12.117,93.734,21.491,140.055c9.708,46.236,21.385,92.083,36.359,136.87c0.332,0.992,1.405,1.527,2.396,1.195
					c0.967-0.323,1.5-1.351,1.219-2.321l-0.008-0.025c-13.143-45.176-23.842-90.973-32.27-137.199
					c-8.561-46.208-14.428-92.871-19.072-139.616c-4.621-46.762-7.362-93.701-9.041-140.67c-1.661-46.981-1.373-94.007-0.83-141.018
					c1.489-94.045,8.011-187.972,17.084-281.63c4.638-46.824,10.223-93.561,16.632-140.188c3.166-23.318,6.547-46.611,10.217-69.857
					l5.777-34.821l3.064-17.374l1.626-8.66c0.578-2.827,1.153-5.88,1.759-8.325l0.103-0.413c0.249-1.006-0.364-2.024-1.37-2.273
					C933.576,1289.408,932.589,1289.982,932.302,1290.934z"/>
			</g>
		</g>
		<g>
			<g>
				
					<ellipse transform="matrix(0.7071 -0.7071 0.7071 0.7071 -210.808 1866.1864)" style="fill:#91B3FA;" cx="2147.282" cy="1187.561" rx="568.63" ry="568.63"/>
				<g>
					
						<linearGradient id="SVGID_00000155841252158198350080000005950791020345845635_" gradientUnits="userSpaceOnUse" x1="2036.8735" y1="1330.9784" x2="3004.8516" y2="73.6067">
						<stop  offset="0" style="stop-color:#4F52FF"/>
						<stop  offset="1" style="stop-color:#4042E2"/>
					</linearGradient>
					
						<circle style="fill:url(#SVGID_00000155841252158198350080000005950791020345845635_);" cx="2147.282" cy="1187.561" r="485.304"/>
					<path style="fill:#FFFFFF;" d="M2147.282,1686.186c-274.943,0-498.626-223.681-498.626-498.624
						s223.683-498.626,498.626-498.626s498.626,223.684,498.626,498.626S2422.226,1686.186,2147.282,1686.186z M2147.282,715.579
						c-260.253,0-471.983,211.73-471.983,471.983c0,260.251,211.731,471.981,471.983,471.981s471.983-211.73,471.983-471.981
						C2619.266,927.308,2407.535,715.579,2147.282,715.579z"/>
				</g>
				<g>
					
						<linearGradient id="SVGID_00000031904315966468252870000017123370358260463011_" gradientUnits="userSpaceOnUse" x1="2843.0715" y1="-498.8464" x2="2200.0454" y2="1059.6769">
						<stop  offset="0" style="stop-color:#4F52FF"/>
						<stop  offset="0.068" style="stop-color:#4B4DF6"/>
						<stop  offset="0.2156" style="stop-color:#4447EB"/>
						<stop  offset="0.4233" style="stop-color:#4143E4"/>
						<stop  offset="1" style="stop-color:#4042E2"/>
					</linearGradient>
					
						<circle style="fill:url(#SVGID_00000031904315966468252870000017123370358260463011_);" cx="2147.282" cy="1187.561" r="295.865"/>
					<path style="fill:#FFFFFF;" d="M2147.282,1496.747c-170.486,0-309.186-138.699-309.186-309.185s138.7-309.187,309.186-309.187
						s309.186,138.701,309.186,309.187S2317.768,1496.747,2147.282,1496.747z M2147.282,905.018
						c-155.795,0-282.543,126.749-282.543,282.544s126.748,282.542,282.543,282.542s282.543-126.747,282.543-282.542
						S2303.077,905.018,2147.282,905.018z"/>
				</g>
				<g>
					
						<linearGradient id="SVGID_00000129914151980968954090000018184916085898115471_" gradientUnits="userSpaceOnUse" x1="2250.7397" y1="965.4593" x2="1854.7513" y2="1815.5615">
						<stop  offset="0" style="stop-color:#E1473D"/>
						<stop  offset="1" style="stop-color:#E9605A"/>
					</linearGradient>
					
						<circle style="fill:url(#SVGID_00000129914151980968954090000018184916085898115471_);" cx="2147.282" cy="1187.561" r="114.627"/>
					<path style="fill:#FFFFFF;" d="M2147.282,1315.508c-70.551,0-127.948-57.396-127.948-127.946
						c0-70.552,57.397-127.948,127.948-127.948c70.551,0,127.947,57.396,127.947,127.948
						C2275.23,1258.112,2217.833,1315.508,2147.282,1315.508z M2147.282,1086.256c-55.86,0-101.306,45.445-101.306,101.306
						c0,55.859,45.446,101.303,101.306,101.303s101.304-45.444,101.304-101.303
						C2248.587,1131.701,2203.143,1086.256,2147.282,1086.256z"/>
				</g>
			</g>
		</g>
		<path style="fill:#7D97F4;" d="M3144.218,3186.505h-996.936V1524.056c0-22.326,18.099-40.424,40.424-40.424h916.087
			c22.326,0,40.424,18.099,40.424,40.424V3186.505z"/>
		<g>
			
				<linearGradient id="SVGID_00000181087401184244931710000002565408835931632823_" gradientUnits="userSpaceOnUse" x1="2679.2571" y1="829.9656" x2="2645.9929" y2="1318.9443">
				<stop  offset="0" style="stop-color:#FF928E"/>
				<stop  offset="1" style="stop-color:#FE7062"/>
			</linearGradient>
			<polygon style="fill:url(#SVGID_00000181087401184244931710000002565408835931632823_);" points="2675.813,1419.48 
				2624.236,1419.48 2543.157,1180.981 2768.531,1167.294 			"/>
			
				<linearGradient id="SVGID_00000104698425731027435290000003349526282579675530_" gradientUnits="userSpaceOnUse" x1="2650.5798" y1="1211.5168" x2="2647.2539" y2="662.6653">
				<stop  offset="0" style="stop-color:#FF928E"/>
				<stop  offset="1" style="stop-color:#FE7062"/>
			</linearGradient>
			<path style="fill:url(#SVGID_00000104698425731027435290000003349526282579675530_);" d="M2405.971,737.874
				c-0.255,20.13-0.255,414.261,199.822,478.264c200.076,64.005,290.448-269.472,283.277-506.97L2405.971,737.874z"/>
			
				<linearGradient id="SVGID_00000081627548704807084410000000739544428845247639_" gradientUnits="userSpaceOnUse" x1="2653.0762" y1="1425.1077" x2="2634.1055" y2="1735.7585">
				<stop  offset="0" style="stop-color:#FF928E"/>
				<stop  offset="1" style="stop-color:#FE7062"/>
			</linearGradient>
			
				<rect x="2490.091" y="1455.662" style="fill:url(#SVGID_00000081627548704807084410000000739544428845247639_);" width="319.867" height="38.835"/>
			
				<linearGradient id="SVGID_00000119828031675939636110000017107592904945749178_" gradientUnits="userSpaceOnUse" x1="2672.0693" y1="1032.4071" x2="2655.4373" y2="1351.7408">
				<stop  offset="0" style="stop-color:#FF928E"/>
				<stop  offset="1" style="stop-color:#FE7062"/>
			</linearGradient>
			<polygon style="fill:url(#SVGID_00000119828031675939636110000017107592904945749178_);" points="2809.958,1455.662 
				2490.091,1455.662 2571.044,1412.232 2729.005,1412.232 			"/>
			
				<linearGradient id="SVGID_00000001654471840664788910000017579596092787178402_" gradientUnits="userSpaceOnUse" x1="2989.0413" y1="267.3625" x2="1884.0956" y2="1738.5897">
				<stop  offset="0" style="stop-color:#FF928E"/>
				<stop  offset="1" style="stop-color:#FE7062"/>
			</linearGradient>
			<path style="fill:url(#SVGID_00000001654471840664788910000017579596092787178402_);" d="M2382.785,681.951
				c-17.563,1.068-31.93,14.071-31.93,28.894v30.315c0,14.822,14.376,26.176,31.948,25.232l548.337-29.503
				c17.572-0.945,31.949-13.846,31.949-28.669v-34.625c0-14.823-14.369-26.076-31.931-25.008L2382.785,681.951z"/>
			
				<linearGradient id="SVGID_00000046305542675337728270000009483869297427494303_" gradientUnits="userSpaceOnUse" x1="3101.011" y1="881.2816" x2="2718.4773" y2="1270.4679">
				<stop  offset="0" style="stop-color:#FF928E"/>
				<stop  offset="1" style="stop-color:#FE7062"/>
			</linearGradient>
			<path style="fill:url(#SVGID_00000046305542675337728270000009483869297427494303_);" d="M2747.478,1247.464
				c-12.78,0-23.804-8.075-25.289-19.021c-1.597-11.768,8.438-22.401,22.414-23.751c2.662-0.267,186.668-19.696,204.114-120.41
				c2.942-16.98,2.616-39.164-15.644-48.42c-15.071-7.644-39.745-5.214-57.388,5.649c-10.03,6.176-21.007,16.994-16.339,33.46
				c3.268,11.526-5.181,23.099-18.874,25.851c-13.687,2.749-27.438-4.363-30.706-15.889c-8.464-29.852,4.929-59.032,35.826-78.056
				c34.325-21.14,81.113-24.333,113.78-7.774c19.093,9.679,49.652,34.422,39.786,91.372
				c-9.755,56.311-56.776,101.42-135.979,130.449c-56.874,20.846-110.517,26.184-112.772,26.401
				C2749.422,1247.418,2748.445,1247.464,2747.478,1247.464z"/>
			
				<linearGradient id="SVGID_00000159461495635689160770000003035948991338017939_" gradientUnits="userSpaceOnUse" x1="2214.3362" y1="915.208" x2="2660.0718" y2="1317.701">
				<stop  offset="0" style="stop-color:#FF928E"/>
				<stop  offset="1" style="stop-color:#FE7062"/>
			</linearGradient>
			<path style="fill:url(#SVGID_00000159461495635689160770000003035948991338017939_);" d="M2556.632,1247.464
				c12.779,0,23.804-8.075,25.29-19.021c1.596-11.768-8.438-22.401-22.414-23.751c-2.662-0.267-186.669-19.696-204.115-120.41
				c-2.942-16.98-2.615-39.164,15.644-48.42c15.072-7.644,39.746-5.214,57.389,5.649c10.03,6.176,21.006,16.994,16.339,33.46
				c-3.268,11.526,5.181,23.099,18.873,25.851c13.687,2.749,27.438-4.363,30.706-15.889c8.464-29.852-4.928-59.032-35.825-78.056
				c-34.325-21.14-81.114-24.333-113.78-7.774c-19.094,9.679-49.652,34.422-39.786,91.372
				c9.754,56.311,56.776,101.42,135.979,130.449c56.874,20.846,110.517,26.184,112.773,26.401
				C2554.689,1247.418,2555.665,1247.464,2556.632,1247.464z"/>
			<path style="opacity:0.63;fill:#FFFFFF;" d="M2780.537,706.916c-2.197,0-4.037-1.721-4.157-3.943
				c-0.124-2.297,1.64-4.261,3.937-4.385l48.969-2.633c2.305-0.09,4.261,1.638,4.385,3.937c0.124,2.297-1.64,4.261-3.937,4.385
				l-48.969,2.633C2780.689,706.914,2780.612,706.916,2780.537,706.916z"/>
			<path style="opacity:0.63;fill:#FFFFFF;" d="M2405.95,727.07c-2.198,0-4.037-1.721-4.157-3.943
				c-0.124-2.297,1.64-4.261,3.937-4.385l292.549-15.739c2.287-0.134,4.26,1.64,4.385,3.937c0.124,2.297-1.64,4.261-3.937,4.385
				l-292.549,15.739C2406.102,727.068,2406.025,727.07,2405.95,727.07z"/>
			<path style="opacity:0.63;fill:#FFFFFF;" d="M2632.476,1171.46c-0.16,0-0.321-0.008-0.482-0.026
				c-52.975-6.094-95.325-49.232-125.872-128.216c-25.225-65.223-37.131-141.552-42.675-194.098c-0.24-2.289,1.418-4.34,3.708-4.582
				c2.293-0.218,4.34,1.418,4.582,3.707c9.519,90.204,44.281,301.459,161.209,314.907c2.287,0.265,3.927,2.33,3.665,4.617
				C2636.364,1169.894,2634.563,1171.46,2632.476,1171.46z"/>
			<path style="opacity:0.63;fill:#FFFFFF;" d="M2464.053,811.636c-2.179,0-4.01-1.693-4.155-3.897
				c-0.781-12.027-0.991-18.946-0.999-19.235c-0.069-2.302,1.742-4.22,4.041-4.289c2.466-0.153,4.222,1.742,4.289,4.041
				c0.002,0.069,0.216,7.079,0.987,18.942c0.149,2.297-1.593,4.279-3.888,4.43C2464.236,811.634,2464.144,811.636,2464.053,811.636z
				"/>
		</g>
		
			<linearGradient id="SVGID_00000031918231884601497190000012033654368114991245_" gradientUnits="userSpaceOnUse" x1="2692.1296" y1="1545.0779" x2="2023.3098" y2="2479.3823">
			<stop  offset="0" style="stop-color:#FEBBBA"/>
			<stop  offset="1" style="stop-color:#FF928E"/>
		</linearGradient>
		<path style="fill:url(#SVGID_00000031918231884601497190000012033654368114991245_);" d="M2441.614,3205.178h-909.616v-1336.62
			c0-22.326,18.099-40.424,40.424-40.424h828.768c22.326,0,40.424,18.099,40.424,40.424V3205.178z"/>
		<path style="fill:#7D97F4;" d="M1812.821,3205.178h-800.013V2247.38c0-22.326,18.099-40.424,40.424-40.424h719.164
			c22.326,0,40.424,18.099,40.424,40.424V3205.178z"/>
		
			<linearGradient id="SVGID_00000089567251094910739220000015251200864752983994_" gradientUnits="userSpaceOnUse" x1="1534.4745" y1="2090.2688" x2="823.9671" y2="2873.3823">
			<stop  offset="0" style="stop-color:#FEBBBA"/>
			<stop  offset="1" style="stop-color:#FF928E"/>
		</linearGradient>
		<path style="fill:url(#SVGID_00000089567251094910739220000015251200864752983994_);" d="M1214.204,3203.392H482.802v-698.501
			c0-22.326,18.099-40.424,40.424-40.424h650.553c22.326,0,40.424,18.099,40.424,40.424V3203.392z"/>
		<g>
			<g>
				
					<linearGradient id="SVGID_00000055684253621226487960000004232799452293325235_" gradientUnits="userSpaceOnUse" x1="6778.2319" y1="2426.156" x2="6873.9131" y2="2426.156" gradientTransform="matrix(1 0 0 1 -6108.8896 0)">
					<stop  offset="0" style="stop-color:#09005D"/>
					<stop  offset="1" style="stop-color:#1A0F91"/>
				</linearGradient>
				<path style="fill:url(#SVGID_00000055684253621226487960000004232799452293325235_);" d="M765.022,2460.225
					c0.011-0.713-0.036-1.434-0.219-2.162c-10.776-42.724-64.264-69.336-64.264-69.336l-13.698,1.073
					c-4.595,0.36-8.486,3.567-9.774,7.992c-9.971,34.246-8.118,55.204-6.23,64.422c0.023,0.021,0.036,0.032,0.06,0.053
					C688.379,2463.832,724.367,2464.852,765.022,2460.225z"/>
				
					<linearGradient id="SVGID_00000112613043187199820290000013999560553777713582_" gradientUnits="userSpaceOnUse" x1="7017.7646" y1="2313.2798" x2="6669.6733" y2="2586.6016" gradientTransform="matrix(1 0 0 1 -6108.8896 0)">
					<stop  offset="0" style="stop-color:#4F52FF"/>
					<stop  offset="1" style="stop-color:#4042E2"/>
				</linearGradient>
				<path style="fill:url(#SVGID_00000112613043187199820290000013999560553777713582_);" d="M670.899,2462.269
					c0.944,3.436,3.48,6.11,6.726,6.793c24.871,5.231,64.401,1.021,80.998-1.149c3.661-0.479,6.338-3.865,6.398-7.688
					C724.37,2464.852,688.383,2463.832,670.899,2462.269z"/>
			</g>
			
				<linearGradient id="SVGID_00000131334496243790928590000011920064219525396138_" gradientUnits="userSpaceOnUse" x1="6820.6504" y1="2298.8223" x2="6798.1636" y2="2495.0732" gradientTransform="matrix(1 0 0 1 -6108.8896 0)">
				<stop  offset="0" style="stop-color:#FEBBBA"/>
				<stop  offset="1" style="stop-color:#FF928E"/>
			</linearGradient>
			<path style="fill:url(#SVGID_00000131334496243790928590000011920064219525396138_);" d="M690.81,2350.972l-11.012,51.057
				c0.777,3.741,3.652,6.543,7.134,6.87c4.262,0.4,10.33,0.634,16.432-0.262c5.471-0.804,9.282-6.364,8.311-12.331l14.246-45.334
				H690.81z"/>
			
				<linearGradient id="SVGID_00000122703925509156586690000015763041525966163077_" gradientUnits="userSpaceOnUse" x1="7273.5679" y1="2171.5093" x2="6962.2603" y2="2415.9487" gradientTransform="matrix(1 0 0 1 -6108.8896 0)">
				<stop  offset="0" style="stop-color:#4F52FF"/>
				<stop  offset="1" style="stop-color:#4042E2"/>
			</linearGradient>
			<path style="fill:url(#SVGID_00000122703925509156586690000015763041525966163077_);" d="M1062.816,2233.937
				c-20.935-0.586-31.762-3.052-37.36-5.34c-0.013,2.082-0.001,4.2,0.067,6.395c0.072,2.344,1.809,4.217,3.944,4.203l114.944-0.742
				c3.668-0.024,5.812-4.279,4.222-7.642C1133.562,2232.057,1095.178,2234.843,1062.816,2233.937z"/>
			
				<linearGradient id="SVGID_00000115504297276696636290000016289664140604626605_" gradientUnits="userSpaceOnUse" x1="7134.3457" y1="2204.3875" x2="7257.5918" y2="2204.3875" gradientTransform="matrix(1 0 0 1 -6108.8896 0)">
				<stop  offset="0" style="stop-color:#09005D"/>
				<stop  offset="1" style="stop-color:#1A0F91"/>
			</linearGradient>
			<path style="fill:url(#SVGID_00000115504297276696636290000016289664140604626605_);" d="M1148.644,2230.811
				c0.034-0.075,0.024-0.053,0.058-0.128c-9.769-13.919-35.626-42.95-87.618-55.417l-19.095-0.603
				c-3.456-0.109-6.58,1.949-7.889,5.149c-3.233,7.903-8.501,24.474-8.644,48.785c5.598,2.288,16.426,4.754,37.36,5.34
				C1095.185,2234.843,1133.579,2232.056,1148.644,2230.811z"/>
			
				<linearGradient id="SVGID_00000063615507096216151270000012858849896381837218_" gradientUnits="userSpaceOnUse" x1="8065.5195" y1="2000.3942" x2="8049.1748" y2="2143.043" gradientTransform="matrix(0.9629 0.2699 -0.2699 0.9629 -6155.21 -1974.7611)">
				<stop  offset="0" style="stop-color:#FEBBBA"/>
				<stop  offset="1" style="stop-color:#FF928E"/>
			</linearGradient>
			<path style="fill:url(#SVGID_00000063615507096216151270000012858849896381837218_);" d="M1047.133,2139.721
				c-0.231,1.832-4.492,29.474-6.145,40.191c-0.393,2.547,0.856,4.953,3.031,5.853c3.884,1.606,10.264,3.866,16.279,4.295
				c3.245,0.231,6.294-2.094,7.255-5.522l11.766-41.967L1047.133,2139.721z"/>
			
				<linearGradient id="SVGID_00000151521018268460959020000009841884797158561937_" gradientUnits="userSpaceOnUse" x1="682.2301" y1="2116.0896" x2="1143.7369" y2="2116.0896">
				<stop  offset="0" style="stop-color:#09005D"/>
				<stop  offset="1" style="stop-color:#1A0F91"/>
			</linearGradient>
			<path style="fill:url(#SVGID_00000151521018268460959020000009841884797158561937_);" d="M810.546,1854.662
				c0,0-27.446,41.169-36.594,100.634c-8.417,54.71-80.124,361.882-91.541,410.668c-0.868,3.711,1.474,7.359,5.192,8.198
				c7.034,1.587,18.32,3.684,27.574,3.312c4.92-0.198,9.272-3.229,11.224-7.75l171.057-396.131c0,0,113.758-21.915,155.526,27.446
				c25.06,29.617,8.577,81.766-13.723,155.526c0,0,27.446,13.723,45.743,4.574c0,0,85.282-133.288,50.317-214.992
				c-16.185-37.82-86.051-75.1-155.526-82.337L810.546,1854.662z"/>
			
				<linearGradient id="SVGID_00000025429263750343252520000001470634770510236333_" gradientUnits="userSpaceOnUse" x1="376.891" y1="2118.9104" x2="1095.4631" y2="1540.0602">
				<stop  offset="0" style="stop-color:#FF928E"/>
				<stop  offset="1" style="stop-color:#FE7062"/>
			</linearGradient>
			<path style="fill:url(#SVGID_00000025429263750343252520000001470634770510236333_);" d="M810.546,1854.662l41.169-365.943
				c0,0,178.397,0,292.755,64.04l-148.03,308.749c-7.94,16.562-24.659,27.187-43.026,27.101
				C922.035,1888.462,869.768,1882.862,810.546,1854.662z"/>
			
				<linearGradient id="SVGID_00000016037626936727106120000004158845745825240968_" gradientUnits="userSpaceOnUse" x1="446.4856" y1="2205.3003" x2="1165.0557" y2="1626.4518">
				<stop  offset="0" style="stop-color:#FF928E"/>
				<stop  offset="1" style="stop-color:#FE7062"/>
			</linearGradient>
			<path style="fill:url(#SVGID_00000016037626936727106120000004158845745825240968_);" d="M1293.134,1454.411
				c0,0-11.436,116.644-148.664,98.347c0,0-52.674,58.1-53.783,109.1c0,0,250.477,64.724,227.606-196.011L1293.134,1454.411z"/>
			
				<linearGradient id="SVGID_00000007386047435721232460000000414585119912965511_" gradientUnits="userSpaceOnUse" x1="876.7048" y1="1772.4358" x2="691.4462" y2="1962.2687">
				<stop  offset="0" style="stop-color:#FEBBBA"/>
				<stop  offset="1" style="stop-color:#FF928E"/>
			</linearGradient>
			<path style="fill:url(#SVGID_00000007386047435721232460000000414585119912965511_);" d="M792.249,1813.493
				c0,0,18.297-32.02,45.743-27.446c27.446,4.574,41.169,32.02,41.169,32.02s-27.446,13.723-45.743,22.871
				C815.12,1850.088,783.1,1840.939,792.249,1813.493z"/>
			
				<linearGradient id="SVGID_00000169533321174510064220000012458604740881396652_" gradientUnits="userSpaceOnUse" x1="322.6661" y1="2051.5935" x2="1041.2382" y2="1472.7434">
				<stop  offset="0" style="stop-color:#FF928E"/>
				<stop  offset="1" style="stop-color:#FE7062"/>
			</linearGradient>
			<path style="fill:url(#SVGID_00000169533321174510064220000012458604740881396652_);" d="M847.14,1603.076
				c0,0-233.289,105.209-54.891,210.417l3.866,22.82c0,0-141.859,20.587-147.956-144.038
				c-4.574-123.506,203.556-203.556,203.556-203.556L847.14,1603.076z"/>
			
				<linearGradient id="SVGID_00000181067348305728950860000009773397663129541289_" gradientUnits="userSpaceOnUse" x1="8076.9224" y1="1236.7626" x2="7995.9058" y2="1586.869" gradientTransform="matrix(0.9428 0.3334 -0.3334 0.9428 -6136.5225 -2456.127)">
				<stop  offset="0" style="stop-color:#FEBBBA"/>
				<stop  offset="1" style="stop-color:#FF928E"/>
			</linearGradient>
			<path style="fill:url(#SVGID_00000181067348305728950860000009773397663129541289_);" d="M997.117,1433.796l-33.613,71.877
				c0,0,37.424,27.425,75.488,16.702l9.816-102.048L997.117,1433.796z"/>
			<g>
				
					<linearGradient id="SVGID_00000000918342109937343760000012009836380939884203_" gradientUnits="userSpaceOnUse" x1="4649.5317" y1="4793.9946" x2="4538.146" y2="4941.3486" gradientTransform="matrix(0.8819 -0.4713 0.4713 0.8819 -5298.8882 -670.0543)">
					<stop  offset="0" style="stop-color:#FEBBBA"/>
					<stop  offset="1" style="stop-color:#FF928E"/>
				</linearGradient>
				<path style="fill:url(#SVGID_00000000918342109937343760000012009836380939884203_);" d="M1079.919,1355.576
					c0.692,1.295,14.833,97.346,14.833,97.346l-55.015,6.908l-26.928-89.045C1012.808,1370.785,1068.332,1333.894,1079.919,1355.576
					z"/>
				
					<linearGradient id="SVGID_00000054978464391721436110000004931455572225756575_" gradientUnits="userSpaceOnUse" x1="4564.4653" y1="4829.3818" x2="4697.5186" y2="4829.3818" gradientTransform="matrix(0.8819 -0.4713 0.4713 0.8819 -5298.8882 -670.0543)">
					<stop  offset="0" style="stop-color:#09005D"/>
					<stop  offset="1" style="stop-color:#1A0F91"/>
				</linearGradient>
				<path style="fill:url(#SVGID_00000054978464391721436110000004931455572225756575_);" d="M1033.077,1379.825
					c-1.58,1.9-2.193,4.407-1.665,6.82l10.353,47.292c0.157,0.718,0.402,1.402,0.751,2.047c1.929,3.561,8.98,14.405,19.9,6.552
					c9.306-6.694,17.952-12.717,25.434-13.882c4.369-0.68,8.426,2.404,9.053,6.782c1.294,9.017,3.536,27.264,3.25,43.755
					c-0.071,4.133-3.349,7.493-7.475,7.742c-10.89,0.655-32.192,1.298-49.779-2.042c-2.889-0.548-5.23-2.633-6.115-5.438
					c-3.894-12.34-14.951-46.883-19.573-56.153c-4.294-8.613-17.037-10.202-22.931-10.468c-2.237-0.101-4.315-1.114-5.763-2.821
					c-4.347-5.12-11.107-16.502,2.259-27.417c3.324-2.714,3.764-7.671,1.12-11.049c-4.739-6.054-8.813-15.795,1.579-25.847
					c10.52-10.176,22.269-7.451,29.698-3.895c3.287,1.574,7.373,0.948,9.764-1.803c1.063-1.224,2.627-2.045,4.928-1.756
					c4.339,0.544,8.255-2.273,8.827-6.607c0.981-7.433,5.061-16.145,18.255-18.516c24.198-4.35,35.924,19.965,35.272,36.938
					c-0.652,16.973-27.157,20.198-42.13,17.183C1047.091,1365.026,1037.43,1374.591,1033.077,1379.825z"/>
				
					<linearGradient id="SVGID_00000114788587329279094650000017800845690827194541_" gradientUnits="userSpaceOnUse" x1="4486.3936" y1="4910.688" x2="4575.7354" y2="4819.0254" gradientTransform="matrix(0.8819 -0.4713 0.4713 0.8819 -5298.8882 -670.0543)">
					<stop  offset="0" style="stop-color:#FEBBBA"/>
					<stop  offset="1" style="stop-color:#FF928E"/>
				</linearGradient>
				<path style="fill:url(#SVGID_00000114788587329279094650000017800845690827194541_);" d="M1021.21,1440.733
					c0,0-0.133-29.624-12.083-32.562c-11.95-2.939-24.996,5.559-14.976,23.425C1006.615,1453.819,1021.21,1440.733,1021.21,1440.733
					z"/>
			</g>
			
				<linearGradient id="SVGID_00000176017779609917563890000017223651185696185489_" gradientUnits="userSpaceOnUse" x1="1520.9856" y1="1032.928" x2="1423.4119" y2="1194.812">
				<stop  offset="0" style="stop-color:#4F52FF"/>
				<stop  offset="1" style="stop-color:#4042E2"/>
			</linearGradient>
			<polygon style="fill:url(#SVGID_00000176017779609917563890000017223651185696185489_);" points="1105.588,1381.223 
				1485.254,1321.757 1480.68,1440.688 1105.588,1408.668 			"/>
			
				<linearGradient id="SVGID_00000114044592474980197870000012302801174614134438_" gradientUnits="userSpaceOnUse" x1="1799.2954" y1="1094.3274" x2="1637.4114" y2="1240.6881">
				<stop  offset="0" style="stop-color:#09005D"/>
				<stop  offset="1" style="stop-color:#1A0F91"/>
			</linearGradient>
			<path style="fill:url(#SVGID_00000114044592474980197870000012302801174614134438_);" d="M1472.214,1317.577
				c-2.01,23.546-0.033,97.665,1.069,122.09c0.199,4.421,3.837,7.883,8.263,7.883h6.431c5.025,0,9.343-3.651,10.146-8.612
				c7.088-43.752,10.698-84.889,8.27-121.486c-0.268-4.032-3.679-7.131-7.72-7.131h-18.522
				C1476.016,1310.321,1472.565,1313.455,1472.214,1317.577z"/>
			
				<linearGradient id="SVGID_00000179604244260211504000000009289869884271130036_" gradientUnits="userSpaceOnUse" x1="1122.5266" y1="1369.6028" x2="1031.0409" y2="1504.5443">
				<stop  offset="0" style="stop-color:#4F52FF"/>
				<stop  offset="1" style="stop-color:#4042E2"/>
			</linearGradient>
			<path style="fill:url(#SVGID_00000179604244260211504000000009289869884271130036_);" d="M1112.824,1374.361h-11.216
				c-1.791,0-3.314,1.253-3.698,3.003c-2.44,11.112-0.614,27.89,0.336,34.904c0.253,1.869,1.84,3.262,3.726,3.262h7.113
				c1.915,0,3.524-1.44,3.735-3.343l3.739-33.652C1116.807,1376.309,1115.064,1374.361,1112.824,1374.361z"/>
			
				<linearGradient id="SVGID_00000163755536758777739680000009514616571695208871_" gradientUnits="userSpaceOnUse" x1="1293.1337" y1="1431.907" x2="1347.7017" y2="1431.907">
				<stop  offset="0" style="stop-color:#FEBBBA"/>
				<stop  offset="1" style="stop-color:#FF928E"/>
			</linearGradient>
			<path style="fill:url(#SVGID_00000163755536758777739680000009514616571695208871_);" d="M1293.134,1454.411
				c0,0,2.075-26.487,5.612-29.254c3.537-2.766,30.983-30.212,35.557-30.212c4.574,0,9.149,9.149,0,13.723
				c-9.148,4.574-11.425,18.549-11.425,18.549l24.824,2.119c0,0-17.974,34.223-27.122,38.797
				C1311.431,1472.708,1293.134,1454.411,1293.134,1454.411z"/>
		</g>
		<g>
			
				<linearGradient id="SVGID_00000013886820011376656100000006509058993486470844_" gradientUnits="userSpaceOnUse" x1="2791.032" y1="4062.1069" x2="2779.54" y2="3001.0085">
				<stop  offset="0" style="stop-color:#4F52FF"/>
				<stop  offset="1" style="stop-color:#4042E2"/>
			</linearGradient>
			<path style="fill:url(#SVGID_00000013886820011376656100000006509058993486470844_);" d="M2336.712,2815.969l9.337,290.383
				c1.628,50.635,43.182,90.93,94.08,91.23l695.371,4.098c34.018,0.201,62.998-24.517,67.965-58.014
				c10.873-73.332,24.728-204.542,9.127-327.698H2336.712z"/>
			<path style="fill:#FFFFFF;" d="M3116.517,3184.692c-0.003,0-0.007,0-0.01,0l-9.976-0.059c-0.919-0.007-1.66-0.754-1.654-1.673
				c0.006-0.919,0.601-1.673,1.673-1.654l9.976,0.059c0.919,0.006,1.66,0.753,1.653,1.673
				C3118.173,3183.955,3117.429,3184.692,3116.517,3184.692z M3083.256,3184.497c-0.003,0-0.006,0-0.01,0l-9.979-0.062
				c-0.919-0.007-1.66-0.754-1.654-1.673c0.007-0.916,0.75-1.653,1.663-1.653c0.003,0,0.006,0,0.01,0l9.979,0.062
				c0.919,0.007,1.66,0.754,1.654,1.673C3084.913,3183.76,3084.169,3184.497,3083.256,3184.497z M3049.992,3184.299
				c-0.003,0-0.007,0-0.01,0l-9.979-0.059c-0.919-0.006-1.66-0.754-1.654-1.673c0.007-0.916,0.75-1.654,1.663-1.654
				c0.003,0,0.006,0,0.01,0l9.979,0.059c0.919,0.006,1.66,0.754,1.654,1.673C3051.649,3183.562,3050.905,3184.299,3049.992,3184.299
				z M3016.728,3184.104c-0.003,0-0.007,0-0.01,0l-9.979-0.058c-0.919-0.007-1.66-0.754-1.653-1.673
				c0.006-0.916,0.75-1.653,1.663-1.653c0.003,0,0.007,0,0.01,0l9.979,0.058c0.919,0.007,1.66,0.754,1.653,1.673
				C3018.385,3183.367,3017.641,3184.104,3016.728,3184.104z M2983.464,3183.909c-0.003,0-0.006,0-0.01,0l-9.979-0.058
				c-0.919-0.007-1.66-0.754-1.654-1.673c0.007-0.919,0.828-1.806,1.673-1.653l9.979,0.058c0.919,0.007,1.66,0.754,1.654,1.673
				C2985.121,3183.172,2984.377,3183.909,2983.464,3183.909z M2950.2,3183.711c-0.003,0-0.006,0-0.01,0l-9.979-0.058
				c-0.919-0.007-1.66-0.754-1.654-1.673c0.007-0.916,0.75-1.654,1.663-1.654c0.003,0,0.006,0,0.01,0l9.979,0.059
				c0.919,0.006,1.66,0.753,1.654,1.673C2951.857,3182.974,2951.113,3183.711,2950.2,3183.711z M2916.94,3183.516
				c-0.003,0-0.007,0-0.01,0l-9.979-0.058c-0.919-0.007-1.66-0.754-1.653-1.673c0.007-0.916,0.75-1.653,1.663-1.653
				c0.003,0,0.007,0,0.01,0l9.979,0.058c0.919,0.007,1.66,0.754,1.653,1.673C2918.597,3182.779,2917.853,3183.516,2916.94,3183.516z
				 M2883.676,3183.322c-0.003,0-0.006,0-0.01,0l-9.979-0.059c-0.919-0.006-1.66-0.753-1.654-1.673
				c0.007-0.916,0.75-1.654,1.663-1.654c0.003,0,0.006,0,0.01,0l9.979,0.059c0.919,0.007,1.66,0.754,1.654,1.673
				C2885.333,3182.584,2884.589,3183.322,2883.676,3183.322z M2850.412,3183.123c-0.003,0-0.006,0-0.01,0l-9.979-0.059
				c-0.919-0.006-1.66-0.753-1.653-1.673c0.006-0.916,0.75-1.654,1.663-1.654c0.003,0,0.006,0,0.01,0l9.979,0.059
				c0.919,0.007,1.66,0.754,1.653,1.673C2852.069,3182.386,2851.325,3183.123,2850.412,3183.123z M2817.148,3182.928
				c-0.003,0-0.007,0-0.01,0l-9.979-0.059c-0.919-0.007-1.66-0.754-1.653-1.673c0.006-0.916,0.75-1.654,1.663-1.654
				c0.003,0,0.007,0,0.01,0l9.979,0.059c0.919,0.006,1.66,0.754,1.653,1.673C2818.805,3182.191,2818.061,3182.928,2817.148,3182.928
				z M2783.885,3182.733c-0.003,0-0.007,0-0.01,0l-9.979-0.058c-0.919-0.007-1.66-0.754-1.653-1.673
				c0.006-0.923,0.708-1.546,1.673-1.654l9.979,0.058c0.919,0.007,1.66,0.754,1.653,1.673
				C2785.541,3181.996,2784.797,3182.733,2783.885,3182.733z M2750.621,3182.535c-0.003,0-0.007,0-0.01,0l-9.976-0.059
				c-0.919-0.006-1.66-0.754-1.654-1.673c0.007-0.916,0.75-1.654,1.663-1.654c0.003,0,0.006,0,0.01,0l9.976,0.059
				c0.919,0.007,1.66,0.754,1.653,1.673C2752.277,3181.798,2751.533,3182.535,2750.621,3182.535z M2717.36,3182.34
				c-0.003,0-0.007,0-0.01,0l-9.979-0.058c-0.919-0.007-1.66-0.754-1.653-1.673c0.006-0.916,0.75-1.653,1.663-1.653
				c0.003,0,0.007,0,0.01,0l9.979,0.058c0.919,0.007,1.66,0.754,1.653,1.673C2719.017,3181.603,2718.273,3182.34,2717.36,3182.34z
				 M2684.096,3182.146c-0.003,0-0.007,0-0.01,0l-9.979-0.058c-0.919-0.007-1.66-0.754-1.654-1.673
				c0.006-0.916,0.75-1.653,1.663-1.653c0.003,0,0.007,0,0.01,0l9.979,0.058c0.919,0.007,1.66,0.754,1.654,1.673
				C2685.753,3181.408,2685.009,3182.146,2684.096,3182.146z M2650.832,3181.948c-0.003,0-0.007,0-0.01,0l-9.979-0.059
				c-0.919-0.007-1.66-0.754-1.654-1.673c0.007-0.916,0.75-1.654,1.663-1.654c0.003,0,0.006,0,0.01,0l9.979,0.059
				c0.919,0.006,1.66,0.753,1.654,1.673C2652.489,3181.21,2651.745,3181.948,2650.832,3181.948z M2617.569,3181.752
				c-0.003,0-0.007,0-0.01,0l-9.979-0.058c-0.919-0.007-1.66-0.754-1.654-1.673c0.007-0.916,0.75-1.653,1.663-1.653
				c0.003,0,0.006,0,0.01,0l9.979,0.058c0.919,0.007,1.66,0.754,1.654,1.673C2619.225,3181.015,2618.481,3181.752,2617.569,3181.752
				z M2584.305,3181.558c-0.003,0-0.007,0-0.01,0l-9.979-0.059c-0.919-0.006-1.66-0.753-1.653-1.673
				c0.006-0.916,0.75-1.654,1.663-1.654c0.003,0,0.007,0,0.01,0l9.979,0.059c0.919,0.007,1.66,0.754,1.653,1.673
				C2585.961,3180.82,2585.217,3181.558,2584.305,3181.558z M2551.044,3181.359c-0.003,0-0.006,0-0.01,0l-9.979-0.059
				c-0.919-0.006-1.66-0.753-1.654-1.673c0.007-0.916,0.75-1.653,1.663-1.653c0.003,0,0.006,0,0.01,0l9.979,0.058
				c0.919,0.007,1.66,0.754,1.654,1.673C2552.701,3180.622,2551.957,3181.359,2551.044,3181.359z M3139.434,3181.311
				c-0.695,0-1.345-0.439-1.575-1.134c-0.292-0.871,0.176-1.813,1.046-2.105c3.057-1.027,6.065-2.303,8.943-3.797
				c0.822-0.419,1.816-0.104,2.245,0.711c0.422,0.815,0.104,1.819-0.711,2.245c-3.034,1.569-6.201,2.914-9.417,3.992
				C3139.788,3181.285,3139.61,3181.311,3139.434,3181.311z M2517.78,3181.165c-0.003,0-0.007,0-0.01,0l-9.979-0.059
				c-0.919-0.006-1.66-0.754-1.654-1.673c0.007-0.916,0.75-1.654,1.663-1.654c0.003,0,0.007,0,0.01,0l9.979,0.059
				c0.919,0.006,1.66,0.754,1.654,1.673C2519.437,3180.427,2518.693,3181.165,2517.78,3181.165z M2484.516,3180.969
				c-0.003,0-0.007,0-0.01,0l-9.979-0.058c-0.919-0.007-1.66-0.754-1.653-1.673c0.006-0.916,0.75-1.654,1.663-1.654
				c0.003,0,0.007,0,0.01,0l9.979,0.059c0.919,0.006,1.66,0.753,1.654,1.673C2486.173,3180.232,2485.429,3180.969,2484.516,3180.969
				z M2451.262,3180.625c-0.032,0-0.068,0-0.104-0.003c-3.375-0.211-6.77-0.614-10.086-1.192c-0.903-0.156-1.511-1.017-1.352-1.923
				c0.153-0.91,1.023-1.53,1.923-1.351c3.197,0.555,6.468,0.942,9.723,1.146c0.916,0.059,1.615,0.848,1.556,1.764
				C2452.867,3179.946,2452.136,3180.625,2451.262,3180.625z M2419.187,3172.55c-0.234,0-0.471-0.049-0.698-0.153
				c-3.053-1.41-6.071-3.008-8.966-4.749c-0.786-0.474-1.04-1.497-0.569-2.283c0.478-0.79,1.498-1.033,2.284-0.569
				c2.791,1.679,5.701,3.222,8.644,4.58c0.835,0.386,1.199,1.374,0.815,2.206C2420.415,3172.192,2419.814,3172.55,2419.187,3172.55z
				 M3166.955,3163.282c-0.399,0-0.799-0.143-1.117-0.429c-0.679-0.617-0.731-1.669-0.117-2.352c2.17-2.397,4.168-4.98,5.941-7.679
				c0.503-0.773,1.533-0.981,2.303-0.478c0.767,0.503,0.981,1.537,0.478,2.303c-1.865,2.842-3.969,5.561-6.253,8.088
				C3167.861,3163.097,3167.406,3163.282,3166.955,3163.282z M2392.203,3153.446c-0.435,0-0.867-0.169-1.192-0.507
				c-2.362-2.43-4.603-5.006-6.663-7.66c-0.565-0.725-0.435-1.771,0.292-2.333c0.718-0.568,1.767-0.438,2.332,0.292
				c1.988,2.556,4.148,5.042,6.425,7.387c0.637,0.656,0.621,1.712-0.039,2.352
				C2393.038,3153.29,2392.618,3153.446,2392.203,3153.446z M3182.066,3134.072c-0.117,0-0.24-0.013-0.361-0.039
				c-0.896-0.201-1.462-1.088-1.263-1.985c0.328-1.465,0.601-2.953,0.822-4.457l0.773-5.269c0.13-0.906,0.971-1.51,1.887-1.406
				c0.906,0.133,1.537,0.978,1.407,1.887l-0.777,5.272c-0.23,1.585-0.523,3.151-0.864,4.694
				C3183.519,3133.546,3182.83,3134.072,3182.066,3134.072z M2373.92,3125.899c-0.646,0-1.264-0.38-1.53-1.014
				c-1.315-3.099-2.469-6.318-3.43-9.57c-0.26-0.88,0.244-1.806,1.124-2.066c0.871-0.257,1.806,0.24,2.066,1.124
				c0.926,3.131,2.037,6.23,3.3,9.212c0.361,0.845-0.036,1.823-0.88,2.18C2374.359,3125.857,2374.138,3125.899,2373.92,3125.899z
				 M3186.832,3101.153c-0.071,0-0.143-0.003-0.214-0.013c-0.913-0.117-1.556-0.952-1.439-1.861
				c0.416-3.226,0.828-6.526,1.238-9.895c0.111-0.909,0.984-1.572,1.852-1.449c0.91,0.11,1.559,0.939,1.449,1.852
				c-0.409,3.375-0.822,6.682-1.238,9.914C3188.372,3100.542,3187.654,3101.153,3186.832,3101.153z M2366.92,3093.581
				c-0.893,0-1.634-0.708-1.663-1.608l-0.322-9.976c-0.029-0.916,0.692-1.686,1.611-1.715c0.893-0.032,1.683,0.692,1.715,1.608
				l0.322,9.976c0.029,0.916-0.692,1.686-1.611,1.715C2366.956,3093.581,2366.936,3093.581,2366.92,3093.581z M3190.698,3068.106
				c-0.058,0-0.117-0.003-0.179-0.01c-0.913-0.097-1.575-0.916-1.478-1.829c0.344-3.258,0.682-6.565,1.017-9.921
				c0.091-0.913,0.913-1.572,1.819-1.488c0.913,0.091,1.582,0.903,1.488,1.819c-0.335,3.362-0.672,6.676-1.017,9.94
				C3192.257,3067.473,3191.536,3068.106,3190.698,3068.106z M2365.851,3060.333c-0.893,0-1.634-0.708-1.663-1.608l-0.322-9.973
				c-0.029-0.919,0.692-1.689,1.608-1.718c1.056-0.075,1.686,0.692,1.719,1.611l0.322,9.969c0.029,0.919-0.692,1.689-1.611,1.719
				C2365.887,3060.333,2365.868,3060.333,2365.851,3060.333z M3193.806,3034.982c-0.046,0-0.094-0.003-0.14-0.007
				c-0.916-0.075-1.595-0.877-1.52-1.793c0.27-3.281,0.533-6.594,0.783-9.937c0.072-0.913,0.786-1.627,1.787-1.533
				c0.916,0.072,1.602,0.871,1.533,1.787c-0.257,3.349-0.52,6.669-0.789,9.956
				C3195.388,3034.323,3194.661,3034.982,3193.806,3034.982z M2364.783,3027.088c-0.893,0-1.634-0.708-1.663-1.608l-0.322-9.979
				c-0.029-0.916,0.692-1.686,1.611-1.715c0.848,0.065,1.686,0.692,1.715,1.608l0.322,9.979c0.029,0.916-0.692,1.686-1.608,1.715
				C2364.818,3027.088,2364.799,3027.088,2364.783,3027.088z M3196.139,3001.796c-0.032,0-0.065,0-0.097-0.003
				c-0.916-0.052-1.618-0.838-1.563-1.758c0.192-3.291,0.374-6.611,0.542-9.95c0.042-0.916,0.669-1.647,1.744-1.575
				c0.916,0.045,1.624,0.825,1.575,1.744c-0.169,3.346-0.351,6.672-0.542,9.976
				C3197.747,3001.114,3197.016,3001.796,3196.139,3001.796z M2363.714,2993.841c-0.893,0-1.634-0.708-1.663-1.611l-0.322-9.969
				c-0.029-0.919,0.692-1.689,1.611-1.718c0.825,0.019,1.686,0.692,1.715,1.608l0.322,9.973c0.029,0.919-0.692,1.689-1.611,1.718
				C2363.75,2993.841,2363.73,2993.841,2363.714,2993.841z M3197.639,2968.562c-0.016,0-0.036,0-0.055,0
				c-0.916-0.029-1.637-0.799-1.608-1.719c0.107-3.304,0.201-6.624,0.279-9.963c0.023-0.919,0.936-1.683,1.702-1.624
				c0.919,0.023,1.644,0.783,1.624,1.702c-0.078,3.346-0.172,6.679-0.28,9.995
				C3199.273,2967.854,3198.533,2968.562,3197.639,2968.562z M2362.642,2960.593c-0.897,0-1.634-0.711-1.663-1.611l-0.318-9.973
				c-0.029-0.916,0.692-1.686,1.611-1.715c0.971-0.01,1.686,0.695,1.715,1.611l0.318,9.973c0.029,0.916-0.692,1.686-1.611,1.715
				C2362.678,2960.593,2362.658,2960.593,2362.642,2960.593z M3198.24,2935.311c-0.003,0-0.007,0-0.007,0
				c-0.919-0.003-1.66-0.754-1.657-1.67l0.01-4.207l-0.016-5.756c-0.003-0.919,0.737-1.67,1.653-1.673c0.003,0,0.007,0,0.01,0
				c0.916,0,1.66,0.74,1.663,1.653l0.016,5.776l-0.01,4.22C3199.9,2934.57,3199.156,2935.311,3198.24,2935.311z M2361.573,2927.349
				c-0.893,0-1.634-0.708-1.663-1.611l-0.322-9.973c-0.029-0.919,0.692-1.689,1.608-1.719c0.02,0,0.039,0,0.055,0
				c0.893,0,1.634,0.708,1.663,1.608l0.322,9.979c0.029,0.916-0.692,1.686-1.611,1.715
				C2361.609,2927.349,2361.59,2927.349,2361.573,2927.349z M3197.86,2902.053c-0.9,0-1.637-0.715-1.663-1.618
				c-0.091-3.313-0.198-6.633-0.322-9.957c-0.032-0.919,0.682-1.689,1.602-1.725c0.991,0.029,1.689,0.685,1.725,1.602
				c0.124,3.336,0.231,6.662,0.322,9.989c0.026,0.919-0.698,1.683-1.618,1.709C3197.89,2902.053,3197.873,2902.053,3197.86,2902.053
				z M2360.504,2894.101c-0.893,0-1.634-0.708-1.663-1.608l-0.322-9.979c-0.029-0.916,0.692-1.686,1.611-1.715
				c0.942,0.075,1.686,0.692,1.715,1.611l0.322,9.972c0.029,0.919-0.692,1.689-1.608,1.719
				C2360.54,2894.101,2360.521,2894.101,2360.504,2894.101z M3196.376,2868.825c-0.874,0-1.605-0.679-1.66-1.559
				c-0.208-3.31-0.435-6.627-0.676-9.94c-0.065-0.916,0.624-1.712,1.54-1.78c0.887-0.104,1.712,0.62,1.78,1.54
				c0.24,3.326,0.468,6.649,0.676,9.972c0.059,0.916-0.64,1.706-1.556,1.764C3196.444,2868.825,3196.408,2868.825,3196.376,2868.825
				z M2359.436,2860.854c-0.893,0-1.634-0.708-1.663-1.608l-0.322-9.976c-0.029-0.916,0.692-1.686,1.611-1.715
				c0.919,0.029,1.686,0.692,1.715,1.608l0.322,9.976c0.029,0.916-0.692,1.686-1.611,1.715
				C2359.471,2860.854,2359.452,2860.854,2359.436,2860.854z M3193.657,2835.675c-0.842,0-1.563-0.637-1.65-1.494
				c-0.338-3.304-0.698-6.604-1.078-9.904c-0.104-0.91,0.552-1.735,1.465-1.842c0.832-0.107,1.735,0.546,1.842,1.465
				c0.38,3.313,0.74,6.627,1.079,9.943c0.094,0.913-0.572,1.731-1.485,1.822C3193.771,2835.672,3193.715,2835.675,3193.657,2835.675
				z M2358.367,2827.606c-0.893,0-1.634-0.708-1.663-1.608l-0.322-9.973c-0.029-0.919,0.692-1.689,1.608-1.718
				c1.082-0.013,1.686,0.692,1.718,1.611l0.322,9.969c0.029,0.919-0.692,1.689-1.611,1.719
				C2358.403,2827.606,2358.383,2827.606,2358.367,2827.606z M3176.489,2817.633h-9.979c-0.919,0-1.663-0.744-1.663-1.663
				c0-0.919,0.744-1.663,1.663-1.663h9.979c0.919,0,1.663,0.744,1.663,1.663C3178.152,2816.89,3177.408,2817.633,3176.489,2817.633z
				 M3143.225,2817.633h-9.979c-0.919,0-1.663-0.744-1.663-1.663c0-0.919,0.744-1.663,1.663-1.663h9.979
				c0.919,0,1.663,0.744,1.663,1.663C3144.888,2816.89,3144.144,2817.633,3143.225,2817.633z M3109.961,2817.633h-9.979
				c-0.919,0-1.663-0.744-1.663-1.663c0-0.919,0.744-1.663,1.663-1.663h9.979c0.919,0,1.663,0.744,1.663,1.663
				C3111.625,2816.89,3110.881,2817.633,3109.961,2817.633z M3076.698,2817.633h-9.979c-0.919,0-1.663-0.744-1.663-1.663
				c0-0.919,0.744-1.663,1.663-1.663h9.979c0.919,0,1.663,0.744,1.663,1.663C3078.361,2816.89,3077.617,2817.633,3076.698,2817.633z
				 M3043.434,2817.633h-9.979c-0.919,0-1.663-0.744-1.663-1.663c0-0.919,0.744-1.663,1.663-1.663h9.979
				c0.919,0,1.663,0.744,1.663,1.663C3045.097,2816.89,3044.353,2817.633,3043.434,2817.633z M3010.17,2817.633h-9.979
				c-0.919,0-1.663-0.744-1.663-1.663c0-0.919,0.744-1.663,1.663-1.663h9.979c0.919,0,1.663,0.744,1.663,1.663
				C3011.833,2816.89,3011.089,2817.633,3010.17,2817.633z M2976.906,2817.633h-9.979c-0.919,0-1.663-0.744-1.663-1.663
				c0-0.919,0.744-1.663,1.663-1.663h9.979c0.919,0,1.663,0.744,1.663,1.663C2978.569,2816.89,2977.825,2817.633,2976.906,2817.633z
				 M2943.642,2817.633h-9.979c-0.919,0-1.663-0.744-1.663-1.663c0-0.919,0.744-1.663,1.663-1.663h9.979
				c0.919,0,1.663,0.744,1.663,1.663C2945.305,2816.89,2944.561,2817.633,2943.642,2817.633z M2910.378,2817.633h-9.979
				c-0.919,0-1.663-0.744-1.663-1.663c0-0.919,0.744-1.663,1.663-1.663h9.979c0.919,0,1.663,0.744,1.663,1.663
				C2912.041,2816.89,2911.297,2817.633,2910.378,2817.633z M2877.114,2817.633h-9.979c-0.919,0-1.663-0.744-1.663-1.663
				c0-0.919,0.744-1.663,1.663-1.663h9.979c0.919,0,1.663,0.744,1.663,1.663C2878.777,2816.89,2878.034,2817.633,2877.114,2817.633z
				 M2843.85,2817.633h-9.979c-0.919,0-1.663-0.744-1.663-1.663c0-0.919,0.744-1.663,1.663-1.663h9.979
				c0.919,0,1.663,0.744,1.663,1.663C2845.514,2816.89,2844.77,2817.633,2843.85,2817.633z M2810.586,2817.633h-9.979
				c-0.919,0-1.663-0.744-1.663-1.663c0-0.919,0.744-1.663,1.663-1.663h9.979c0.919,0,1.663,0.744,1.663,1.663
				C2812.25,2816.89,2811.506,2817.633,2810.586,2817.633z M2777.323,2817.633h-9.979c-0.919,0-1.663-0.744-1.663-1.663
				c0-0.919,0.744-1.663,1.663-1.663h9.979c0.919,0,1.663,0.744,1.663,1.663C2778.986,2816.89,2778.242,2817.633,2777.323,2817.633z
				 M2744.059,2817.633h-9.979c-0.919,0-1.663-0.744-1.663-1.663c0-0.919,0.744-1.663,1.663-1.663h9.979
				c0.919,0,1.663,0.744,1.663,1.663C2745.722,2816.89,2744.978,2817.633,2744.059,2817.633z M2710.795,2817.633h-9.979
				c-0.919,0-1.663-0.744-1.663-1.663c0-0.919,0.744-1.663,1.663-1.663h9.979c0.919,0,1.663,0.744,1.663,1.663
				C2712.458,2816.89,2711.714,2817.633,2710.795,2817.633z M2677.531,2817.633h-9.979c-0.919,0-1.663-0.744-1.663-1.663
				c0-0.919,0.744-1.663,1.663-1.663h9.979c0.919,0,1.663,0.744,1.663,1.663C2679.194,2816.89,2678.45,2817.633,2677.531,2817.633z
				 M2644.267,2817.633h-9.979c-0.919,0-1.663-0.744-1.663-1.663c0-0.919,0.744-1.663,1.663-1.663h9.979
				c0.919,0,1.663,0.744,1.663,1.663C2645.93,2816.89,2645.187,2817.633,2644.267,2817.633z M2611.003,2817.633h-9.979
				c-0.919,0-1.663-0.744-1.663-1.663c0-0.919,0.744-1.663,1.663-1.663h9.979c0.919,0,1.663,0.744,1.663,1.663
				C2612.667,2816.89,2611.923,2817.633,2611.003,2817.633z M2577.74,2817.633h-9.979c-0.919,0-1.663-0.744-1.663-1.663
				c0-0.919,0.744-1.663,1.663-1.663h9.979c0.919,0,1.663,0.744,1.663,1.663C2579.403,2816.89,2578.659,2817.633,2577.74,2817.633z
				 M2544.476,2817.633h-9.979c-0.919,0-1.663-0.744-1.663-1.663c0-0.919,0.744-1.663,1.663-1.663h9.979
				c0.919,0,1.663,0.744,1.663,1.663C2546.139,2816.89,2545.395,2817.633,2544.476,2817.633z M2511.212,2817.633h-9.979
				c-0.919,0-1.663-0.744-1.663-1.663c0-0.919,0.744-1.663,1.663-1.663h9.979c0.919,0,1.663,0.744,1.663,1.663
				C2512.875,2816.89,2512.131,2817.633,2511.212,2817.633z M2477.948,2817.633h-9.979c-0.919,0-1.663-0.744-1.663-1.663
				c0-0.919,0.744-1.663,1.663-1.663h9.979c0.919,0,1.663,0.744,1.663,1.663C2479.611,2816.89,2478.867,2817.633,2477.948,2817.633z
				 M2444.684,2817.633h-9.979c-0.919,0-1.663-0.744-1.663-1.663c0-0.919,0.744-1.663,1.663-1.663h9.979
				c0.919,0,1.663,0.744,1.663,1.663C2446.347,2816.89,2445.604,2817.633,2444.684,2817.633z M2411.42,2817.633h-9.979
				c-0.919,0-1.663-0.744-1.663-1.663c0-0.919,0.744-1.663,1.663-1.663h9.979c0.919,0,1.663,0.744,1.663,1.663
				C2413.083,2816.89,2412.34,2817.633,2411.42,2817.633z M2378.156,2817.633h-9.979c-0.919,0-1.663-0.744-1.663-1.663
				c0-0.919,0.744-1.663,1.663-1.663h9.979c0.919,0,1.663,0.744,1.663,1.663C2379.82,2816.89,2379.076,2817.633,2378.156,2817.633z"
				/>
			
				<linearGradient id="SVGID_00000176010560598283186990000016415259313186147470_" gradientUnits="userSpaceOnUse" x1="2433.5776" y1="2059.9316" x2="2500.1055" y2="2275.0381">
				<stop  offset="0" style="stop-color:#09005D"/>
				<stop  offset="1" style="stop-color:#1A0F91"/>
			</linearGradient>
			<path style="fill:url(#SVGID_00000176010560598283186990000016415259313186147470_);" d="M2540.502,2605.166l2.092-22.395
				c2.361-5.346,7.264-9.132,13.059-10.054c21.664-3.449,75.392-9.51,101.261,9.823l3.865,26.024L2540.502,2605.166z"/>
			
				<linearGradient id="SVGID_00000173142624898381703990000017348388355405165743_" gradientUnits="userSpaceOnUse" x1="2451.6023" y1="2054.3567" x2="2518.1301" y2="2269.4629">
				<stop  offset="0" style="stop-color:#09005D"/>
				<stop  offset="1" style="stop-color:#1A0F91"/>
			</linearGradient>
			<path style="fill:url(#SVGID_00000173142624898381703990000017348388355405165743_);" d="M2608.175,2583.618
				c-4.988,1.216-9.985,1.213-14.991-0.018c-6.057-1.488-10.33-6.907-10.33-13.117l0.001-70.125h35.687l0,70.073
				C2618.543,2576.668,2614.262,2582.133,2608.175,2583.618z"/>
			
				<linearGradient id="SVGID_00000066484491145086386740000002928534391012235920_" gradientUnits="userSpaceOnUse" x1="2749.0586" y1="1962.3599" x2="2815.5864" y2="2177.4661">
				<stop  offset="0" style="stop-color:#09005D"/>
				<stop  offset="1" style="stop-color:#1A0F91"/>
			</linearGradient>
			<path style="fill:url(#SVGID_00000066484491145086386740000002928534391012235920_);" d="M2886.16,2605.166l2.092-22.395
				c2.361-5.346,7.264-9.132,13.059-10.054c21.664-3.449,75.392-9.51,101.261,9.823l3.865,26.024L2886.16,2605.166z"/>
			
				<linearGradient id="SVGID_00000103956708081041859700000015691696321913118594_" gradientUnits="userSpaceOnUse" x1="2768.1265" y1="1956.4628" x2="2834.6543" y2="2171.5691">
				<stop  offset="0" style="stop-color:#09005D"/>
				<stop  offset="1" style="stop-color:#1A0F91"/>
			</linearGradient>
			<path style="fill:url(#SVGID_00000103956708081041859700000015691696321913118594_);" d="M2953.833,2583.618
				c-4.988,1.216-9.985,1.213-14.991-0.018c-6.057-1.488-10.329-6.907-10.329-13.117l0-77.514h35.688l0,77.462
				C2964.201,2576.668,2959.92,2582.133,2953.833,2583.618z"/>
			
				<linearGradient id="SVGID_00000104668271068135859890000008108556601912528542_" gradientUnits="userSpaceOnUse" x1="2581.6455" y1="2536.3401" x2="2974.1592" y2="2407.72">
				<stop  offset="0" style="stop-color:#4F52FF"/>
				<stop  offset="1" style="stop-color:#4042E2"/>
			</linearGradient>
			<path style="fill:url(#SVGID_00000104668271068135859890000008108556601912528542_);" d="M2579.231,2517.547l383.794-12.704
				c8.75-0.29,16.174-6.602,17.677-15.187c2.103-12.015,3.956-30.002,1.192-48.648c-3.143-21.204-21.381-36.955-42.909-37.467
				c-71.597-1.704-253.865-1.652-354.322,38.085c-10.625,4.203-18.505,13.283-21.195,24.344
				c-2.566,10.549-4.271,24.635-0.919,38.972C2564.329,2512.559,2571.378,2517.807,2579.231,2517.547z"/>
			<path style="fill:#91B3FA;" d="M2572.584,2499.239c-1.689,0-3.135-1.277-3.307-2.992c-0.062-0.62-1.488-15.339,2.349-29.515
				c2.998-11.1,11.779-20.027,22.911-23.295c21.466-6.295,62.487-16.999,96.033-17.938c1.91,0.023,3.369,1.397,3.421,3.232
				c0.049,1.839-1.397,3.369-3.232,3.421c-32.799,0.916-73.19,11.464-94.351,17.671c-8.923,2.618-15.959,9.761-18.36,18.643
				c-3.508,12.961-2.163,26.975-2.15,27.115c0.182,1.825-1.15,3.456-2.979,3.641
				C2572.808,2499.233,2572.695,2499.239,2572.584,2499.239z"/>
			
				<linearGradient id="SVGID_00000062904015013570737930000010264889481250115722_" gradientUnits="userSpaceOnUse" x1="2833.1665" y1="2607.752" x2="3272.2932" y2="1440.0743">
				<stop  offset="0" style="stop-color:#4F52FF"/>
				<stop  offset="1" style="stop-color:#4042E2"/>
			</linearGradient>
			<path style="fill:url(#SVGID_00000062904015013570737930000010264889481250115722_);" d="M2362.435,2596.442
				c123.992-1.585,660.371-7.221,816.178,11.577c13.415,1.618,24.362,11.432,27.267,24.568
				c9.207,41.621,27.728,138.309,25.533,234.151c-0.299,13.043-9.863,24.048-22.74,26.484l-355.654,67.284h-126.335l-378.955-75.327
				c-13.357-2.655-23.204-13.969-23.895-27.508c-2.463-48.218-6.313-161.356,6.727-234.179
				C2333.332,2608.017,2346.644,2596.644,2362.435,2596.442z"/>
			<path style="fill:#FFFFFF;" d="M2830.152,2931.523h-9.979c-0.919,0-1.663-0.744-1.663-1.663c0-0.919,0.744-1.663,1.663-1.663
				h9.979c0.919,0,1.663,0.744,1.663,1.663C2831.815,2930.779,2831.071,2931.523,2830.152,2931.523z M2796.888,2931.523h-9.979
				c-0.919,0-1.663-0.744-1.663-1.663c0-0.919,0.744-1.663,1.663-1.663h9.979c0.919,0,1.663,0.744,1.663,1.663
				C2798.551,2930.779,2797.807,2931.523,2796.888,2931.523z M2763.624,2931.523h-9.979c-0.919,0-1.663-0.744-1.663-1.663
				c0-0.919,0.744-1.663,1.663-1.663h9.979c0.919,0,1.663,0.744,1.663,1.663C2765.287,2930.779,2764.543,2931.523,2763.624,2931.523
				z M2730.36,2931.523h-0.659l-10.112-1.978c-0.9-0.179-1.484-1.056-1.306-1.956c0.178-0.903,1.062-1.478,1.955-1.306l9.788,1.946
				l0.334-0.032c0.919,0,1.663,0.744,1.663,1.663C2732.023,2930.779,2731.28,2931.523,2730.36,2931.523z M2853.375,2930.913
				c-0.783,0-1.481-0.556-1.631-1.355c-0.172-0.903,0.422-1.774,1.325-1.943l9.807-1.855c0.874-0.179,1.77,0.422,1.943,1.325
				c0.172,0.903-0.422,1.774-1.325,1.943l-9.807,1.855C2853.583,2930.903,2853.479,2930.913,2853.375,2930.913z M2697.077,2925.039
				c-0.111,0-0.218-0.01-0.328-0.032l-9.788-1.946c-0.9-0.179-1.484-1.052-1.306-1.956c0.178-0.9,1.059-1.488,1.956-1.306
				l9.787,1.946c0.9,0.179,1.485,1.052,1.306,1.956C2698.548,2924.49,2697.853,2925.039,2697.077,2925.039z M2886.06,2924.728
				c-0.783,0-1.481-0.555-1.631-1.355c-0.172-0.903,0.422-1.774,1.325-1.942l9.804-1.855c0.893-0.172,1.774,0.419,1.943,1.325
				c0.172,0.903-0.422,1.774-1.325,1.943l-9.804,1.855C2886.268,2924.718,2886.164,2924.728,2886.06,2924.728z M2664.453,2918.552
				c-0.11,0-0.218-0.01-0.328-0.032l-9.788-1.946c-0.9-0.179-1.485-1.052-1.306-1.956c0.175-0.9,1.082-1.498,1.956-1.306
				l9.788,1.946c0.9,0.179,1.484,1.052,1.306,1.956C2665.925,2918.003,2665.229,2918.552,2664.453,2918.552z M2918.743,2918.546
				c-0.783,0-1.481-0.555-1.631-1.354c-0.172-0.903,0.422-1.774,1.325-1.943l9.807-1.855c0.88-0.172,1.774,0.419,1.943,1.325
				c0.172,0.903-0.422,1.774-1.325,1.943l-9.807,1.855C2918.951,2918.536,2918.847,2918.546,2918.743,2918.546z M2951.428,2912.361
				c-0.783,0-1.481-0.555-1.631-1.354c-0.172-0.903,0.422-1.774,1.325-1.942l9.804-1.855c0.871-0.166,1.771,0.419,1.943,1.325
				c0.172,0.903-0.422,1.773-1.325,1.942l-9.804,1.855C2951.636,2912.351,2951.532,2912.361,2951.428,2912.361z M2631.826,2912.068
				c-0.11,0-0.218-0.01-0.328-0.032l-9.788-1.946c-0.9-0.179-1.485-1.056-1.306-1.956c0.176-0.903,1.079-1.481,1.956-1.306
				l9.788,1.946c0.9,0.179,1.484,1.052,1.306,1.956C2633.297,2911.519,2632.602,2912.068,2631.826,2912.068z M2984.111,2906.179
				c-0.783,0-1.481-0.555-1.631-1.354c-0.172-0.903,0.422-1.774,1.325-1.943l9.807-1.855c0.887-0.166,1.773,0.419,1.942,1.325
				c0.172,0.903-0.422,1.774-1.325,1.943l-9.807,1.855C2984.319,2906.169,2984.215,2906.179,2984.111,2906.179z M2599.202,2905.584
				c-0.111,0-0.218-0.01-0.328-0.032l-9.788-1.946c-0.9-0.179-1.484-1.052-1.306-1.956c0.178-0.9,1.072-1.491,1.956-1.306
				l9.787,1.946c0.9,0.179,1.485,1.052,1.306,1.956C2600.673,2905.035,2599.978,2905.584,2599.202,2905.584z M3016.796,2899.997
				c-0.783,0-1.478-0.556-1.631-1.355c-0.172-0.9,0.422-1.77,1.325-1.942l9.804-1.858c0.877-0.159,1.774,0.419,1.942,1.325
				c0.172,0.9-0.422,1.771-1.325,1.943l-9.804,1.858C3017.004,2899.988,3016.9,2899.997,3016.796,2899.997z M2566.575,2899.097
				c-0.11,0-0.218-0.01-0.328-0.032l-9.788-1.946c-0.9-0.179-1.484-1.052-1.306-1.956c0.178-0.903,1.069-1.501,1.956-1.306
				l9.787,1.946c0.9,0.179,1.485,1.052,1.306,1.956C2568.046,2898.548,2567.351,2899.097,2566.575,2899.097z M3049.479,2893.812
				c-0.783,0-1.481-0.556-1.631-1.355c-0.172-0.903,0.422-1.773,1.325-1.942l9.807-1.855c0.893-0.156,1.774,0.422,1.943,1.325
				c0.172,0.903-0.422,1.774-1.325,1.942l-9.807,1.855C3049.687,2893.802,3049.583,2893.812,3049.479,2893.812z M2533.951,2892.614
				c-0.11,0-0.218-0.01-0.328-0.032l-9.788-1.946c-0.9-0.179-1.485-1.052-1.306-1.956s1.062-1.484,1.956-1.306l9.788,1.946
				c0.9,0.179,1.484,1.056,1.306,1.956C2535.422,2892.065,2534.727,2892.614,2533.951,2892.614z M3082.165,2887.631
				c-0.783,0-1.481-0.556-1.631-1.355c-0.172-0.903,0.422-1.774,1.325-1.943l9.804-1.855c0.887-0.156,1.774,0.422,1.943,1.325
				c0.172,0.903-0.422,1.771-1.325,1.943l-9.804,1.855C3082.372,2887.621,3082.268,2887.631,3082.165,2887.631z M2501.323,2886.126
				c-0.11,0-0.218-0.01-0.328-0.032l-9.788-1.946c-0.9-0.179-1.485-1.052-1.306-1.956c0.179-0.9,1.062-1.491,1.956-1.306
				l9.788,1.946c0.9,0.179,1.485,1.056,1.306,1.956C2502.795,2885.577,2502.1,2886.126,2501.323,2886.126z M3114.847,2881.446
				c-0.783,0-1.481-0.556-1.631-1.355c-0.172-0.903,0.422-1.774,1.325-1.943l9.807-1.855c0.874-0.179,1.771,0.422,1.943,1.325
				s-0.422,1.774-1.325,1.942l-9.807,1.855C3115.055,2881.436,3114.951,2881.446,3114.847,2881.446z M2468.7,2879.643
				c-0.11,0-0.218-0.01-0.328-0.032l-9.788-1.946c-0.9-0.179-1.484-1.052-1.306-1.956c0.178-0.903,1.082-1.475,1.956-1.306
				l9.787,1.946c0.9,0.179,1.485,1.052,1.306,1.956C2470.171,2879.094,2469.476,2879.643,2468.7,2879.643z M3147.532,2875.264
				c-0.783,0-1.481-0.555-1.631-1.354c-0.172-0.903,0.422-1.774,1.325-1.943l9.804-1.855c0.893-0.176,1.773,0.419,1.942,1.325
				c0.172,0.903-0.422,1.771-1.325,1.943l-9.804,1.855C3147.74,2875.254,3147.636,2875.264,3147.532,2875.264z M2436.073,2873.159
				c-0.11,0-0.218-0.01-0.328-0.032l-9.787-1.946c-0.9-0.179-1.485-1.052-1.306-1.956c0.175-0.903,1.078-1.488,1.956-1.306
				l9.788,1.946c0.9,0.179,1.484,1.056,1.306,1.956C2437.544,2872.61,2436.849,2873.159,2436.073,2873.159z M3180.215,2869.079
				c-0.783,0-1.481-0.555-1.631-1.354c-0.172-0.903,0.422-1.774,1.325-1.943l9.807-1.855c0.88-0.172,1.774,0.419,1.943,1.325
				c0.172,0.903-0.422,1.773-1.325,1.942l-9.807,1.855C3180.423,2869.069,3180.319,2869.079,3180.215,2869.079z M2403.448,2866.672
				c-0.11,0-0.218-0.01-0.328-0.032l-9.788-1.946c-0.9-0.179-1.485-1.052-1.306-1.956c0.179-0.9,1.072-1.494,1.956-1.306
				l9.788,1.946c0.9,0.179,1.485,1.056,1.306,1.956C2404.92,2866.123,2404.225,2866.672,2403.448,2866.672z M2370.822,2860.188
				c-0.111,0-0.218-0.01-0.328-0.032l-9.788-1.946c-0.9-0.179-1.484-1.052-1.306-1.956c0.179-0.903,1.069-1.478,1.956-1.306
				l9.787,1.946c0.9,0.179,1.485,1.052,1.306,1.956C2372.293,2859.639,2371.598,2860.188,2370.822,2860.188z M3200.946,2852.791
				c-0.919,0-1.663-0.643-1.663-1.563c0-3.456-0.023-6.708-0.068-9.956c-0.013-0.919,0.721-1.673,1.641-1.686
				c0.006,0,0.016,0,0.023,0c0.909,0,1.65,0.731,1.663,1.641c0.046,3.261,0.068,6.532,0.068,9.8
				C3202.61,2851.947,3201.865,2852.791,3200.946,2852.791z M2353.637,2840.418c-0.887,0-1.624-0.698-1.663-1.595
				c-0.133-3.17-0.263-6.503-0.39-9.982c-0.032-0.919,0.686-1.689,1.602-1.725c0.988,0.013,1.689,0.686,1.725,1.602
				c0.127,3.473,0.257,6.799,0.39,9.969c0.036,0.916-0.676,1.692-1.595,1.731C2353.683,2840.418,2353.66,2840.418,2353.637,2840.418
				z M3200.196,2819.638c-0.887,0-1.621-0.695-1.66-1.588c-0.149-3.33-0.318-6.646-0.503-9.95c-0.052-0.919,0.65-1.702,1.566-1.754
				c1.043-0.094,1.706,0.656,1.754,1.566c0.185,3.317,0.354,6.646,0.504,9.989c0.042,0.919-0.669,1.696-1.585,1.738
				C3200.245,2819.638,3200.219,2819.638,3200.196,2819.638z M2352.53,2807.164c-0.9,0-1.64-0.718-1.663-1.621
				c-0.081-3.261-0.156-6.594-0.221-9.986c-0.016-0.919,0.711-1.676,1.631-1.696c0.013,0,0.023,0,0.032,0
				c0.903,0,1.647,0.724,1.663,1.631c0.065,3.385,0.14,6.711,0.221,9.966c0.023,0.919-0.705,1.683-1.621,1.705
				C2352.556,2807.164,2352.542,2807.164,2352.53,2807.164z M3198.078,2786.432c-0.854,0-1.582-0.656-1.653-1.527
				c-0.276-3.333-0.569-6.643-0.874-9.93c-0.084-0.913,0.588-1.725,1.504-1.809c0.903-0.045,1.725,0.585,1.809,1.504
				c0.305,3.294,0.598,6.617,0.874,9.963c0.078,0.916-0.604,1.718-1.52,1.793
				C3198.172,2786.429,3198.127,2786.432,3198.078,2786.432z M2352.01,2773.897c-0.913,0-1.657-0.738-1.663-1.654
				c-0.02-3.287-0.029-6.607-0.032-9.953l3.326-0.036c0.003,3.375,0.013,6.688,0.032,9.969c0.007,0.919-0.734,1.667-1.654,1.673
				C2352.016,2773.897,2352.013,2773.897,2352.01,2773.897z M3194.784,2753.318c-0.832,0-1.55-0.624-1.65-1.471
				c-0.383-3.343-0.783-6.64-1.192-9.898c-0.114-0.913,0.533-1.744,1.442-1.858c0.884-0.124,1.744,0.53,1.858,1.442
				c0.409,3.271,0.809,6.581,1.199,9.93c0.104,0.913-0.549,1.738-1.462,1.845
				C3194.914,2753.315,3194.849,2753.318,3194.784,2753.318z M2352.159,2740.636c-0.01,0-0.016,0-0.026,0
				c-0.919-0.013-1.65-0.77-1.637-1.689c0.052-3.323,0.117-6.656,0.198-9.992c0.023-0.919,0.783-1.504,1.702-1.624
				c0.919,0.023,1.647,0.786,1.624,1.702c-0.081,3.33-0.146,6.656-0.198,9.966
				C2353.81,2739.908,2353.066,2740.636,2352.159,2740.636z M3190.448,2720.324c-0.812,0-1.52-0.594-1.644-1.423
				c-0.487-3.343-0.984-6.633-1.485-9.859c-0.14-0.906,0.481-1.758,1.39-1.897c0.893-0.117,1.761,0.484,1.897,1.39
				c0.5,3.232,0.997,6.529,1.491,9.885c0.133,0.909-0.497,1.754-1.406,1.887C3190.61,2720.317,3190.529,2720.324,3190.448,2720.324z
				 M2353.147,2707.372c-0.023,0-0.049,0-0.075,0c-0.916-0.042-1.627-0.819-1.585-1.738c0.149-3.343,0.315-6.672,0.497-9.989
				c0.049-0.916,0.851-1.679,1.751-1.569c0.916,0.049,1.621,0.835,1.569,1.751c-0.182,3.304-0.347,6.627-0.497,9.956
				C2354.768,2706.677,2354.034,2707.372,2353.147,2707.372z M3185.153,2687.463c-0.793,0-1.494-0.568-1.634-1.374
				c-0.594-3.382-1.186-6.653-1.767-9.813c-0.169-0.903,0.429-1.771,1.332-1.936c0.871-0.185,1.77,0.425,1.936,1.332
				c0.588,3.167,1.179,6.451,1.774,9.839c0.159,0.906-0.445,1.767-1.348,1.926
				C3185.347,2687.456,3185.25,2687.463,3185.153,2687.463z M2355.252,2674.167c-0.049,0-0.094-0.003-0.143-0.006
				c-0.916-0.078-1.595-0.88-1.517-1.796c0.283-3.362,0.588-6.685,0.919-9.966c0.091-0.916,0.981-1.569,1.819-1.488
				c0.913,0.091,1.582,0.906,1.488,1.819c-0.325,3.261-0.63,6.572-0.913,9.914
				C2356.834,2673.511,2356.106,2674.167,2355.252,2674.167z M3178.922,2654.774c-0.77,0-1.465-0.542-1.627-1.329
				c-0.724-3.534-1.417-6.792-2.056-9.758c-0.195-0.897,0.374-1.783,1.273-1.975c0.893-0.215,1.78,0.38,1.975,1.273
				c0.646,2.972,1.338,6.244,2.069,9.791c0.182,0.9-0.396,1.78-1.296,1.965C3179.146,2654.764,3179.036,2654.774,3178.922,2654.774z
				 M2359.01,2641.114c-0.081,0-0.166-0.006-0.247-0.02c-0.909-0.133-1.536-0.981-1.4-1.887c0.5-3.378,1.036-6.682,1.605-9.898
				c0.162-0.906,1.052-1.523,1.926-1.348c0.903,0.159,1.507,1.02,1.348,1.927c-0.562,3.19-1.092,6.461-1.592,9.807
				C2360.531,2640.523,2359.819,2641.114,2359.01,2641.114z M3157.33,2638.239c-0.052,0-0.104-0.003-0.156-0.006
				c-3.18-0.296-6.487-0.588-9.924-0.874c-0.916-0.075-1.598-0.88-1.521-1.793c0.075-0.919,0.984-1.585,1.793-1.52
				c3.45,0.286,6.77,0.578,9.957,0.874c0.916,0.084,1.588,0.896,1.504,1.809C3158.902,2637.593,3158.177,2638.239,3157.33,2638.239z
				 M3124.163,2635.647c-0.036,0-0.072,0-0.107-0.003c-3.232-0.211-6.552-0.422-9.953-0.627c-0.916-0.055-1.615-0.841-1.559-1.761
				c0.055-0.916,0.786-1.673,1.761-1.559c3.407,0.205,6.728,0.416,9.966,0.627c0.919,0.062,1.611,0.851,1.553,1.767
				C3125.765,2634.971,3125.034,2635.647,3124.163,2635.647z M3090.951,2633.737c-0.026,0-0.055,0-0.084-0.003
				c-3.258-0.166-6.581-0.328-9.963-0.487c-0.916-0.042-1.627-0.822-1.582-1.738c0.042-0.916,0.884-1.709,1.738-1.582
				c3.388,0.159,6.711,0.322,9.976,0.487c0.916,0.045,1.624,0.828,1.575,1.744
				C3092.566,2633.048,3091.832,2633.737,3090.951,2633.737z M3057.717,2632.243c-0.023,0-0.042,0-0.065,0l-9.969-0.386
				c-0.919-0.036-1.634-0.809-1.602-1.725c0.036-0.916,0.78-1.644,1.725-1.601l9.976,0.386c0.919,0.039,1.634,0.812,1.598,1.728
				C3059.344,2631.541,3058.607,2632.243,3057.717,2632.243z M3024.472,2631.047c-0.016,0-0.036,0-0.055,0l-9.973-0.315
				c-0.916-0.029-1.64-0.796-1.611-1.715c0.029-0.916,0.698-1.576,1.715-1.611l9.979,0.315c0.916,0.029,1.637,0.799,1.608,1.718
				C3026.106,2630.339,3025.366,2631.047,3024.472,2631.047z M2991.219,2630.073c-0.013,0-0.029,0-0.046,0l-9.973-0.257
				c-0.919-0.023-1.644-0.786-1.621-1.706c0.023-0.903,0.763-1.621,1.663-1.621c0.013,0,0.026,0,0.042,0l9.979,0.257
				c0.916,0.026,1.64,0.789,1.618,1.709C2992.856,2629.358,2992.118,2630.073,2991.219,2630.073z M2957.964,2629.271
				c-0.01,0-0.023,0-0.036,0l-9.973-0.208c-0.919-0.02-1.65-0.78-1.631-1.696c0.019-0.909,0.76-1.631,1.663-1.631
				c0.01,0,0.023,0,0.032,0l9.979,0.208c0.916,0.019,1.647,0.78,1.627,1.699C2959.608,2628.549,2958.867,2629.271,2957.964,2629.271
				z M2924.707,2628.614c-0.01,0-0.019,0-0.029,0l-9.976-0.169c-0.919-0.016-1.654-0.773-1.637-1.689
				c0.016-0.91,0.757-1.637,1.663-1.637c0.01,0,0.02,0,0.026,0l9.982,0.169c0.916,0.016,1.65,0.773,1.634,1.692
				C2926.354,2627.886,2925.613,2628.614,2924.707,2628.614z M2382.402,2628.507c-0.909,0-1.65-0.731-1.663-1.644
				c-0.01-0.916,0.724-1.67,1.644-1.683l9.986-0.117c0.006,0,0.013,0,0.019,0c0.91,0,1.654,0.731,1.663,1.644
				c0.01,0.919-0.728,1.673-1.644,1.683l-9.986,0.117C2382.415,2628.507,2382.409,2628.507,2382.402,2628.507z M2415.682,2628.137
				c-0.913,0-1.653-0.734-1.663-1.647c-0.01-0.919,0.728-1.67,1.647-1.679l9.986-0.101c0.819-0.007,1.67,0.728,1.679,1.647
				c0.01,0.919-0.728,1.67-1.647,1.679l-9.986,0.101C2415.692,2628.137,2415.689,2628.137,2415.682,2628.137z M2891.443,2628.085
				c-0.007,0-0.016,0-0.023,0l-9.979-0.136c-0.919-0.013-1.654-0.767-1.64-1.686c0.01-0.919,0.63-1.604,1.686-1.64l9.979,0.136
				c0.919,0.013,1.653,0.767,1.64,1.686C2893.093,2627.354,2892.353,2628.085,2891.443,2628.085z M2448.962,2627.812
				c-0.913,0-1.654-0.734-1.663-1.647c-0.01-0.919,0.731-1.67,1.647-1.679l9.982-0.091c0.007,0,0.01,0,0.016,0
				c0.913,0,1.654,0.734,1.663,1.647c0.01,0.919-0.728,1.67-1.647,1.679l-9.982,0.091
				C2448.972,2627.812,2448.966,2627.812,2448.962,2627.812z M2858.182,2627.662c-0.007,0-0.013,0-0.02,0l-9.976-0.11
				c-0.919-0.01-1.657-0.763-1.647-1.679c0.01-0.923,0.913-1.673,1.679-1.647l9.982,0.11c0.919,0.01,1.654,0.763,1.644,1.683
				C2859.836,2626.931,2859.092,2627.662,2858.182,2627.662z M2482.236,2627.526c-0.913,0-1.657-0.737-1.663-1.65
				c-0.007-0.919,0.731-1.67,1.65-1.676l9.982-0.078c0.003,0,0.01,0,0.013,0c0.913,0,1.657,0.737,1.663,1.65
				c0.006,0.919-0.731,1.67-1.65,1.676l-9.982,0.078C2482.246,2627.526,2482.239,2627.526,2482.236,2627.526z M2824.912,2627.328
				c-0.003,0-0.01,0-0.016,0l-9.976-0.084c-0.919-0.007-1.657-0.757-1.65-1.676c0.006-0.913,0.75-1.65,1.663-1.65
				c0.003,0,0.01,0,0.013,0l9.982,0.084c0.916,0.01,1.654,0.76,1.647,1.679C2826.565,2626.594,2825.825,2627.328,2824.912,2627.328z
				 M2515.513,2627.282c-0.913,0-1.656-0.737-1.663-1.65c-0.007-0.919,0.734-1.67,1.65-1.676l9.986-0.065c0.003,0,0.007,0,0.01,0
				c0.913,0,1.657,0.737,1.663,1.653c0.006,0.919-0.734,1.667-1.654,1.673l-9.979,0.065
				C2515.519,2627.282,2515.516,2627.282,2515.513,2627.282z M2548.786,2627.081c-0.913,0-1.657-0.737-1.663-1.653
				c-0.007-0.919,0.734-1.667,1.653-1.673l9.982-0.055c0.003,0,0.006,0,0.01,0c0.913,0,1.657,0.738,1.663,1.654
				c0.007,0.919-0.734,1.667-1.653,1.673l-9.982,0.055C2548.793,2627.081,2548.79,2627.081,2548.786,2627.081z M2791.652,2627.078
				c-0.003,0-0.007,0-0.013,0l-9.976-0.062c-0.919-0.007-1.66-0.754-1.654-1.673c0.007-0.916,0.75-1.653,1.663-1.653
				c0.003,0,0.006,0,0.01,0l9.982,0.062c0.916,0.007,1.657,0.757,1.65,1.676C2793.308,2626.34,2792.564,2627.078,2791.652,2627.078z
				 M2582.06,2626.922c-0.916,0-1.66-0.741-1.663-1.657c-0.003-0.919,0.738-1.667,1.657-1.67l9.982-0.039c0.003,0,0.003,0,0.007,0
				c0.916,0,1.66,0.741,1.663,1.657c0.003,0.919-0.737,1.666-1.657,1.67l-9.982,0.039
				C2582.063,2626.922,2582.063,2626.922,2582.06,2626.922z M2758.388,2626.896c-0.003,0-0.007,0-0.007,0l-9.979-0.042
				c-0.919-0.003-1.66-0.75-1.657-1.67c0.003-0.919,0.698-1.748,1.67-1.657l9.982,0.042c0.916,0.003,1.657,0.754,1.653,1.67
				C2760.048,2626.155,2759.304,2626.896,2758.388,2626.896z M2615.333,2626.805c-0.916,0-1.66-0.74-1.663-1.656
				c-0.003-0.919,0.74-1.667,1.657-1.67l9.986-0.023c0.003,0,0.003,0,0.003,0c0.919,0,1.663,0.744,1.663,1.663
				c0,0.916-0.744,1.663-1.663,1.663l-9.976,0.023C2615.337,2626.805,2615.333,2626.805,2615.333,2626.805z M2725.124,2626.782
				c0,0-0.003,0-0.007,0l-9.976-0.023c-0.919-0.003-1.663-0.747-1.66-1.666c0.003-0.916,0.747-1.66,1.663-1.66h0.003l9.979,0.023
				c0.919,0.003,1.663,0.75,1.66,1.67C2726.784,2626.042,2726.04,2626.782,2725.124,2626.782z M2648.607,2626.74
				c-0.919,0-1.663-0.744-1.663-1.663c0-0.916,0.744-1.663,1.663-1.663l9.982-0.01c0.003,0,0.003,0,0.003,0
				c0.919,0,1.663,0.744,1.663,1.66c0,0.919-0.744,1.666-1.663,1.666l-9.982,0.01
				C2648.607,2626.74,2648.607,2626.74,2648.607,2626.74z M2691.857,2626.727c0,0,0,0-0.003,0l-9.976-0.006
				c-0.919,0-1.663-0.744-1.663-1.663c0-0.919,0.744-1.663,1.663-1.663l9.982,0.006c0.916,0,1.66,0.747,1.66,1.663
				C2693.52,2625.983,2692.776,2626.727,2691.857,2626.727z"/>
			
				<linearGradient id="SVGID_00000058587705604353142640000000001482001418208385_" gradientUnits="userSpaceOnUse" x1="2818.4653" y1="2622.1653" x2="2768.6663" y2="3016.7251">
				<stop  offset="0" style="stop-color:#09005D"/>
				<stop  offset="1" style="stop-color:#1A0F91"/>
			</linearGradient>
			<path style="fill:url(#SVGID_00000058587705604353142640000000001482001418208385_);" d="M2841.125,3013.546h-110.679
				c-14.504,0-26.718-10.791-28.439-25.125l-12.788-106.502c-2.037-16.965,11.274-31.891,28.439-31.891h132.962
				c16.818,0,30.016,14.354,28.53,31.028l-9.496,106.502C2868.343,3002.269,2855.962,3013.546,2841.125,3013.546z"/>
			
				<linearGradient id="SVGID_00000075139552282198215230000004921983141403800211_" gradientUnits="userSpaceOnUse" x1="2770.1807" y1="2731.0229" x2="2822.4983" y2="3331.2971">
				<stop  offset="0" style="stop-color:#4F52FF"/>
				<stop  offset="1" style="stop-color:#4042E2"/>
			</linearGradient>
			<path style="opacity:0.33;fill:url(#SVGID_00000075139552282198215230000004921983141403800211_);" d="M2827.511,2993.958
				h-84.239c-11.039,0-20.336-8.213-21.646-19.123l-9.733-81.06c-1.55-12.912,8.581-24.272,21.646-24.272h101.198
				c12.8,0,22.846,10.925,21.714,23.616l-7.227,81.06C2848.227,2985.374,2838.804,2993.958,2827.511,2993.958z"/>
		</g>
	</g>
</g>
</svg>
